<mxfile host="app.diagrams.net" modified="2021-03-20T17:25:06.264Z" agent="5.0 (Windows NT 10.0; Win64; x64) AppleWebKit/537.36 (KHTML, like Gecko) Chrome/89.0.4389.90 Safari/537.36" etag="wyjl69A9YoCKhhFUtQvi" version="14.4.6" type="github" pages="3">
  <diagram name="Cheeat Sheet" id="b520641d-4fe3-3701-9064-5fc419738815">
    <mxGraphModel dx="1422" dy="1931" grid="1" gridSize="10" guides="1" tooltips="1" connect="1" arrows="1" fold="1" page="1" pageScale="1" pageWidth="1654" pageHeight="1169" background="#ffffff" math="0" shadow="0">
      <root>
        <mxCell id="0" />
        <mxCell id="1" parent="0" />
        <mxCell id="agNFHFQZlJ_opT2V57MR-5" value="" style="edgeStyle=orthogonalEdgeStyle;rounded=0;orthogonalLoop=1;jettySize=auto;html=1;exitX=0.5;exitY=0.5;exitDx=0;exitDy=0;exitPerimeter=0;" parent="1" source="agNFHFQZlJ_opT2V57MR-1" target="agNFHFQZlJ_opT2V57MR-2" edge="1">
          <mxGeometry relative="1" as="geometry" />
        </mxCell>
        <mxCell id="agNFHFQZlJ_opT2V57MR-9" style="edgeStyle=orthogonalEdgeStyle;rounded=0;orthogonalLoop=1;jettySize=auto;html=1;entryX=0;entryY=0.5;entryDx=0;entryDy=0;exitX=0.5;exitY=0.5;exitDx=0;exitDy=0;exitPerimeter=0;" parent="1" source="agNFHFQZlJ_opT2V57MR-1" target="agNFHFQZlJ_opT2V57MR-8" edge="1">
          <mxGeometry relative="1" as="geometry">
            <Array as="points">
              <mxPoint x="178" y="-235" />
              <mxPoint x="178" y="-46" />
              <mxPoint x="211" y="-46" />
            </Array>
          </mxGeometry>
        </mxCell>
        <mxCell id="agNFHFQZlJ_opT2V57MR-15" style="edgeStyle=orthogonalEdgeStyle;rounded=0;orthogonalLoop=1;jettySize=auto;html=1;entryX=0;entryY=0;entryDx=0;entryDy=0;exitX=0.5;exitY=0.5;exitDx=0;exitDy=0;exitPerimeter=0;" parent="1" source="agNFHFQZlJ_opT2V57MR-1" target="agNFHFQZlJ_opT2V57MR-12" edge="1">
          <mxGeometry relative="1" as="geometry">
            <Array as="points">
              <mxPoint x="178" y="-235" />
              <mxPoint x="178" y="212" />
              <mxPoint x="229" y="212" />
            </Array>
          </mxGeometry>
        </mxCell>
        <mxCell id="agNFHFQZlJ_opT2V57MR-23" value="&amp;lt;filename&amp;gt;" style="edgeLabel;html=1;align=center;verticalAlign=middle;resizable=0;points=[];fontFamily=Courier New;" parent="agNFHFQZlJ_opT2V57MR-15" vertex="1" connectable="0">
          <mxGeometry x="0.2457" y="-2" relative="1" as="geometry">
            <mxPoint as="offset" />
          </mxGeometry>
        </mxCell>
        <mxCell id="agNFHFQZlJ_opT2V57MR-1" value="Actor" style="shape=umlActor;verticalLabelPosition=bottom;verticalAlign=top;html=1;outlineConnect=0;" parent="1" vertex="1">
          <mxGeometry x="98" y="-265" width="30" height="60" as="geometry" />
        </mxCell>
        <mxCell id="agNFHFQZlJ_opT2V57MR-6" value="&lt;font face=&quot;Courier New&quot;&gt;--global &lt;br&gt;user.name =&#39;***&#39;&lt;br&gt;user.email =&#39;***&#39;&lt;br&gt;core.editor =&#39;***&#39;&lt;/font&gt;" style="edgeStyle=orthogonalEdgeStyle;rounded=0;orthogonalLoop=1;jettySize=auto;html=1;entryX=0;entryY=0.5;entryDx=0;entryDy=0;entryPerimeter=0;" parent="1" source="agNFHFQZlJ_opT2V57MR-2" target="iJWCfO42kXaOOCPk_vlR-1" edge="1">
          <mxGeometry x="-0.5134" y="-15" relative="1" as="geometry">
            <mxPoint x="893" y="-265" as="targetPoint" />
            <Array as="points">
              <mxPoint x="268" y="-235" />
            </Array>
            <mxPoint as="offset" />
          </mxGeometry>
        </mxCell>
        <mxCell id="agNFHFQZlJ_opT2V57MR-2" value="config" style="ellipse;whiteSpace=wrap;html=1;" parent="1" vertex="1">
          <mxGeometry x="208" y="-275" width="120" height="80" as="geometry" />
        </mxCell>
        <mxCell id="agNFHFQZlJ_opT2V57MR-19" style="edgeStyle=orthogonalEdgeStyle;rounded=0;orthogonalLoop=1;jettySize=auto;html=1;exitX=1;exitY=0.5;exitDx=0;exitDy=0;entryX=0;entryY=0.5;entryDx=0;entryDy=0;" parent="1" source="Mm4MfuI6_JCa-wtS7Yni-13" target="agNFHFQZlJ_opT2V57MR-18" edge="1">
          <mxGeometry relative="1" as="geometry">
            <mxPoint x="818" y="-110" as="sourcePoint" />
            <Array as="points">
              <mxPoint x="618" y="-40" />
              <mxPoint x="1778" y="-40" />
              <mxPoint x="1778" y="-42" />
            </Array>
          </mxGeometry>
        </mxCell>
        <mxCell id="agNFHFQZlJ_opT2V57MR-30" style="edgeStyle=orthogonalEdgeStyle;rounded=0;orthogonalLoop=1;jettySize=auto;html=1;entryX=0;entryY=0.5;entryDx=0;entryDy=0;" parent="1" source="agNFHFQZlJ_opT2V57MR-13" target="agNFHFQZlJ_opT2V57MR-29" edge="1">
          <mxGeometry relative="1" as="geometry">
            <mxPoint x="696" y="626" as="sourcePoint" />
            <Array as="points">
              <mxPoint x="920" y="638" />
              <mxPoint x="920" y="733" />
            </Array>
          </mxGeometry>
        </mxCell>
        <mxCell id="agNFHFQZlJ_opT2V57MR-10" style="edgeStyle=orthogonalEdgeStyle;rounded=0;orthogonalLoop=1;jettySize=auto;html=1;entryX=0;entryY=0.25;entryDx=0;entryDy=0;" parent="1" source="agNFHFQZlJ_opT2V57MR-8" target="Mm4MfuI6_JCa-wtS7Yni-11" edge="1">
          <mxGeometry relative="1" as="geometry" />
        </mxCell>
        <mxCell id="agNFHFQZlJ_opT2V57MR-8" value="(1)&lt;br&gt;init" style="ellipse;whiteSpace=wrap;html=1;" parent="1" vertex="1">
          <mxGeometry x="210" y="-86" width="120" height="79" as="geometry" />
        </mxCell>
        <mxCell id="agNFHFQZlJ_opT2V57MR-25" value="" style="edgeStyle=orthogonalEdgeStyle;rounded=0;orthogonalLoop=1;jettySize=auto;html=1;" parent="1" source="agNFHFQZlJ_opT2V57MR-11" target="agNFHFQZlJ_opT2V57MR-13" edge="1">
          <mxGeometry relative="1" as="geometry" />
        </mxCell>
        <mxCell id="agNFHFQZlJ_opT2V57MR-11" value="(3)&lt;br&gt;commit" style="ellipse;whiteSpace=wrap;html=1;" parent="1" vertex="1">
          <mxGeometry x="634.5" y="400" width="124" height="80" as="geometry" />
        </mxCell>
        <mxCell id="agNFHFQZlJ_opT2V57MR-14" value="&lt;font face=&quot;Courier New&quot;&gt;&amp;lt;filename&amp;gt; |&lt;br&gt;. (all files)&lt;/font&gt;" style="edgeStyle=orthogonalEdgeStyle;rounded=0;orthogonalLoop=1;jettySize=auto;html=1;exitX=1;exitY=0.5;exitDx=0;exitDy=0;" parent="1" source="agNFHFQZlJ_opT2V57MR-12" target="agNFHFQZlJ_opT2V57MR-13" edge="1">
          <mxGeometry x="0.1221" y="20" relative="1" as="geometry">
            <mxPoint x="481" y="646" as="targetPoint" />
            <Array as="points">
              <mxPoint x="511" y="350" />
              <mxPoint x="511" y="636" />
            </Array>
            <mxPoint as="offset" />
          </mxGeometry>
        </mxCell>
        <mxCell id="agNFHFQZlJ_opT2V57MR-12" value="(2)&lt;br&gt;add" style="ellipse;whiteSpace=wrap;html=1;" parent="1" vertex="1">
          <mxGeometry x="211" y="310" width="120" height="80" as="geometry" />
        </mxCell>
        <mxCell id="agNFHFQZlJ_opT2V57MR-16" value="&lt;font face=&quot;Courier New&quot;&gt;-m &#39;&amp;lt;&lt;i&gt;Commit message&lt;/i&gt;&amp;gt;&lt;br&gt;--amend &amp;lt;Ammended message&lt;br&gt;&lt;/font&gt;" style="edgeStyle=orthogonalEdgeStyle;rounded=0;orthogonalLoop=1;jettySize=auto;html=1;" parent="1" source="agNFHFQZlJ_opT2V57MR-13" target="agNFHFQZlJ_opT2V57MR-11" edge="1">
          <mxGeometry relative="1" as="geometry" />
        </mxCell>
        <mxCell id="agNFHFQZlJ_opT2V57MR-32" value="&lt;font face=&quot;Courier New&quot;&gt;&amp;lt;filename&amp;gt;&lt;/font&gt;" style="edgeStyle=orthogonalEdgeStyle;rounded=0;orthogonalLoop=1;jettySize=auto;html=1;exitX=0.523;exitY=1.001;exitDx=0;exitDy=0;exitPerimeter=0;" parent="1" source="agNFHFQZlJ_opT2V57MR-13" target="agNFHFQZlJ_opT2V57MR-31" edge="1">
          <mxGeometry relative="1" as="geometry">
            <Array as="points">
              <mxPoint x="700" y="772" />
              <mxPoint x="700" y="772" />
            </Array>
          </mxGeometry>
        </mxCell>
        <mxCell id="agNFHFQZlJ_opT2V57MR-45" style="edgeStyle=orthogonalEdgeStyle;rounded=0;orthogonalLoop=1;jettySize=auto;html=1;fontSize=11;exitX=1.013;exitY=0.54;exitDx=0;exitDy=0;exitPerimeter=0;entryX=0;entryY=0;entryDx=0;entryDy=0;" parent="1" source="agNFHFQZlJ_opT2V57MR-13" target="agNFHFQZlJ_opT2V57MR-44" edge="1">
          <mxGeometry relative="1" as="geometry">
            <Array as="points">
              <mxPoint x="831" y="640" />
              <mxPoint x="831" y="822" />
            </Array>
          </mxGeometry>
        </mxCell>
        <mxCell id="agNFHFQZlJ_opT2V57MR-55" value="" style="edgeStyle=orthogonalEdgeStyle;rounded=0;orthogonalLoop=1;jettySize=auto;html=1;fontFamily=Courier New;fontSize=11;entryX=0;entryY=0.5;entryDx=0;entryDy=0;exitX=1.025;exitY=0.54;exitDx=0;exitDy=0;exitPerimeter=0;" parent="1" source="agNFHFQZlJ_opT2V57MR-13" target="agNFHFQZlJ_opT2V57MR-54" edge="1">
          <mxGeometry relative="1" as="geometry">
            <mxPoint x="861" y="680" as="sourcePoint" />
            <Array as="points">
              <mxPoint x="831" y="640" />
              <mxPoint x="831" y="944" />
            </Array>
          </mxGeometry>
        </mxCell>
        <mxCell id="agNFHFQZlJ_opT2V57MR-13" value="Staging Area&lt;br&gt;&lt;br&gt;&amp;lt;Branch Master&amp;gt;" style="html=1;rounded=0;shadow=0;comic=0;labelBackgroundColor=none;strokeWidth=2;fontFamily=Verdana;fontSize=12;align=center;shape=mxgraph.ios7ui.horLines;" parent="1" vertex="1">
          <mxGeometry x="627" y="613" width="139" height="50" as="geometry" />
        </mxCell>
        <mxCell id="agNFHFQZlJ_opT2V57MR-27" value="Once per git installationt" style="shape=callout;whiteSpace=wrap;html=1;perimeter=calloutPerimeter;position2=0.58;flipV=1;" parent="1" vertex="1">
          <mxGeometry x="198" y="-195" width="120" height="70" as="geometry" />
        </mxCell>
        <mxCell id="agNFHFQZlJ_opT2V57MR-36" style="edgeStyle=orthogonalEdgeStyle;rounded=0;orthogonalLoop=1;jettySize=auto;html=1;entryX=0;entryY=0.5;entryDx=0;entryDy=0;" parent="1" source="agNFHFQZlJ_opT2V57MR-29" target="agNFHFQZlJ_opT2V57MR-35" edge="1">
          <mxGeometry relative="1" as="geometry" />
        </mxCell>
        <mxCell id="agNFHFQZlJ_opT2V57MR-29" value="status" style="ellipse;whiteSpace=wrap;html=1;" parent="1" vertex="1">
          <mxGeometry x="1548" y="690" width="120" height="86" as="geometry" />
        </mxCell>
        <mxCell id="agNFHFQZlJ_opT2V57MR-33" value="&lt;font face=&quot;Courier New&quot;&gt;&amp;lt;filename&amp;gt;&lt;/font&gt;" style="edgeStyle=orthogonalEdgeStyle;rounded=0;orthogonalLoop=1;jettySize=auto;html=1;entryX=0;entryY=0.5;entryDx=0;entryDy=0;" parent="1" source="agNFHFQZlJ_opT2V57MR-31" target="iJWCfO42kXaOOCPk_vlR-10" edge="1">
          <mxGeometry relative="1" as="geometry">
            <mxPoint x="351" y="766" as="targetPoint" />
            <Array as="points">
              <mxPoint x="704" y="1064" />
            </Array>
          </mxGeometry>
        </mxCell>
        <mxCell id="agNFHFQZlJ_opT2V57MR-31" value="rm --cached &amp;lt;file&amp;gt;" style="ellipse;whiteSpace=wrap;html=1;" parent="1" vertex="1">
          <mxGeometry x="642" y="868" width="124" height="80" as="geometry" />
        </mxCell>
        <mxCell id="agNFHFQZlJ_opT2V57MR-22" style="edgeStyle=orthogonalEdgeStyle;rounded=0;orthogonalLoop=1;jettySize=auto;html=1;" parent="1" source="agNFHFQZlJ_opT2V57MR-18" target="agNFHFQZlJ_opT2V57MR-21" edge="1">
          <mxGeometry relative="1" as="geometry" />
        </mxCell>
        <mxCell id="agNFHFQZlJ_opT2V57MR-18" value="log" style="ellipse;whiteSpace=wrap;html=1;" parent="1" vertex="1">
          <mxGeometry x="1788" y="-86" width="120" height="88" as="geometry" />
        </mxCell>
        <mxCell id="agNFHFQZlJ_opT2V57MR-21" value="&lt;span style=&quot;color: rgb(0 , 0 , 0) ; font-size: 11px ; font-style: normal ; font-weight: 400 ; letter-spacing: normal ; text-indent: 0px ; text-transform: none ; word-spacing: 0px ; background-color: rgb(255 , 255 , 255) ; display: inline ; float: none&quot;&gt;commit &lt;/span&gt;&lt;span style=&quot;font-size: 11px ; font-style: normal ; letter-spacing: normal ; text-indent: 0px ; text-transform: none ; word-spacing: 0px ; background-color: rgb(255 , 255 , 255) ; display: inline ; float: none&quot;&gt;&lt;b&gt;&lt;font color=&quot;#ff3333&quot;&gt;&amp;lt;Branch ID&amp;gt;&lt;/font&gt;&lt;/b&gt;&lt;/span&gt;&lt;br style=&quot;color: rgb(0 , 0 , 0) ; font-size: 11px ; font-style: normal ; font-weight: 400 ; letter-spacing: normal ; text-indent: 0px ; text-transform: none ; word-spacing: 0px&quot;&gt;&lt;span style=&quot;color: rgb(0 , 0 , 0) ; font-size: 11px ; font-style: normal ; font-weight: 400 ; letter-spacing: normal ; text-indent: 0px ; text-transform: none ; word-spacing: 0px ; background-color: rgb(255 , 255 , 255) ; display: inline ; float: none&quot;&gt;Author:&amp;lt;Author&amp;gt;&lt;/span&gt;&lt;br style=&quot;color: rgb(0 , 0 , 0) ; font-size: 11px ; font-style: normal ; font-weight: 400 ; letter-spacing: normal ; text-indent: 0px ; text-transform: none ; word-spacing: 0px&quot;&gt;&lt;span style=&quot;color: rgb(0 , 0 , 0) ; font-size: 11px ; font-style: normal ; font-weight: 400 ; letter-spacing: normal ; text-indent: 0px ; text-transform: none ; word-spacing: 0px ; background-color: rgb(255 , 255 , 255) ; display: inline ; float: none&quot;&gt;Date &amp;lt;Date&amp;gt;&lt;/span&gt;&lt;br style=&quot;color: rgb(0 , 0 , 0) ; font-size: 11px ; font-style: normal ; font-weight: 400 ; letter-spacing: normal ; text-indent: 0px ; text-transform: none ; word-spacing: 0px&quot;&gt;&lt;span style=&quot;color: rgb(0 , 0 , 0) ; font-size: 11px ; font-style: normal ; font-weight: 400 ; letter-spacing: normal ; text-indent: 0px ; text-transform: none ; word-spacing: 0px ; background-color: rgb(255 , 255 , 255) ; display: inline ; float: none&quot;&gt;&amp;lt;Commit message&amp;gt;&lt;br&gt;&lt;br style=&quot;font-size: 12px ; background-color: rgb(248 , 249 , 250)&quot;&gt;commit&amp;nbsp;&lt;b&gt;&lt;font color=&quot;#ff3333&quot;&gt;&amp;lt;Branch ID&amp;gt;&lt;/font&gt;&lt;/b&gt;&lt;br style=&quot;background-color: rgb(248 , 249 , 250)&quot;&gt;Author:&amp;lt;Author&amp;gt;&lt;br style=&quot;background-color: rgb(248 , 249 , 250)&quot;&gt;Date &amp;lt;Date&amp;gt;&lt;br style=&quot;background-color: rgb(248 , 249 , 250)&quot;&gt;&amp;lt;Commit message&amp;gt;&lt;br style=&quot;font-size: 12px ; background-color: rgb(248 , 249 , 250)&quot;&gt;&lt;br style=&quot;font-size: 12px ; background-color: rgb(248 , 249 , 250)&quot;&gt;commit&amp;nbsp;&lt;b&gt;&lt;font color=&quot;#ff3333&quot;&gt;&amp;lt;Branch ID&amp;gt;&lt;/font&gt;&lt;/b&gt;&lt;br style=&quot;background-color: rgb(248 , 249 , 250)&quot;&gt;Author:&amp;lt;Author&amp;gt;&lt;br style=&quot;background-color: rgb(248 , 249 , 250)&quot;&gt;Date &amp;lt;Date&amp;gt;&lt;br style=&quot;background-color: rgb(248 , 249 , 250)&quot;&gt;&amp;lt;Commit message&amp;gt;&lt;br&gt;&lt;/span&gt;" style="shape=document;whiteSpace=wrap;html=1;boundedLbl=1;align=left;fontFamily=Courier New;verticalAlign=top;" parent="1" vertex="1">
          <mxGeometry x="1988" y="-177" width="180" height="270" as="geometry" />
        </mxCell>
        <mxCell id="agNFHFQZlJ_opT2V57MR-35" value="&lt;ul&gt;&lt;li&gt;&lt;font style=&quot;font-size: 11px&quot;&gt;Nothing to commit, working directory clean&lt;/font&gt;&lt;/li&gt;&lt;li&gt;&lt;span style=&quot;background-color: rgb(255 , 255 , 255) ; font-size: 11px&quot;&gt;Changes to be committed&lt;/span&gt;&lt;br&gt;&lt;/li&gt;&lt;li&gt;&lt;font style=&quot;font-size: 11px&quot;&gt;Changes not staged for committ&lt;/font&gt;&lt;/li&gt;&lt;li&gt;&lt;/li&gt;&lt;/ul&gt;" style="shape=document;whiteSpace=wrap;html=1;boundedLbl=1;align=left;fontFamily=Courier New;" parent="1" vertex="1">
          <mxGeometry x="1819" y="693" width="330" height="80" as="geometry" />
        </mxCell>
        <mxCell id="agNFHFQZlJ_opT2V57MR-43" style="edgeStyle=orthogonalEdgeStyle;rounded=0;orthogonalLoop=1;jettySize=auto;html=1;fontSize=11;entryX=0;entryY=1;entryDx=0;entryDy=0;exitX=1;exitY=0.75;exitDx=0;exitDy=0;" parent="1" source="iJWCfO42kXaOOCPk_vlR-12" target="agNFHFQZlJ_opT2V57MR-29" edge="1">
          <mxGeometry relative="1" as="geometry">
            <Array as="points">
              <mxPoint x="1275" y="860" />
              <mxPoint x="1340" y="860" />
              <mxPoint x="1340" y="763" />
            </Array>
          </mxGeometry>
        </mxCell>
        <mxCell id="Mm4MfuI6_JCa-wtS7Yni-38" style="edgeStyle=orthogonalEdgeStyle;rounded=0;orthogonalLoop=1;jettySize=auto;html=1;fontSize=16;exitX=0;exitY=0.75;exitDx=0;exitDy=0;entryX=0;entryY=1;entryDx=0;entryDy=0;" parent="1" source="iJWCfO42kXaOOCPk_vlR-10" target="agNFHFQZlJ_opT2V57MR-12" edge="1">
          <mxGeometry relative="1" as="geometry">
            <Array as="points">
              <mxPoint x="181" y="1074" />
              <mxPoint x="181" y="378" />
            </Array>
            <mxPoint x="211" y="796" as="sourcePoint" />
          </mxGeometry>
        </mxCell>
        <mxCell id="agNFHFQZlJ_opT2V57MR-42" style="edgeStyle=orthogonalEdgeStyle;rounded=0;orthogonalLoop=1;jettySize=auto;html=1;fontSize=11;entryX=0;entryY=0.5;entryDx=0;entryDy=0;exitX=0.5;exitY=1;exitDx=0;exitDy=0;" parent="1" source="agNFHFQZlJ_opT2V57MR-38" target="iJWCfO42kXaOOCPk_vlR-9" edge="1">
          <mxGeometry relative="1" as="geometry">
            <Array as="points">
              <mxPoint x="882" y="1004" />
            </Array>
          </mxGeometry>
        </mxCell>
        <mxCell id="Mm4MfuI6_JCa-wtS7Yni-68" value="&lt;font face=&quot;Courier New&quot;&gt;&amp;lt;branch name&amp;gt;&lt;/font&gt;" style="edgeStyle=orthogonalEdgeStyle;rounded=0;orthogonalLoop=1;jettySize=auto;html=1;entryX=0;entryY=0.5;entryDx=0;entryDy=0;fontSize=11;horizontal=0;" parent="1" source="Mm4MfuI6_JCa-wtS7Yni-61" target="Mm4MfuI6_JCa-wtS7Yni-84" edge="1">
          <mxGeometry x="0.114" y="-12" relative="1" as="geometry">
            <mxPoint x="1118" y="360" as="sourcePoint" />
            <Array as="points">
              <mxPoint x="1050" y="420" />
              <mxPoint x="1028" y="420" />
              <mxPoint x="1028" y="22" />
            </Array>
            <mxPoint as="offset" />
          </mxGeometry>
        </mxCell>
        <mxCell id="Mm4MfuI6_JCa-wtS7Yni-88" style="edgeStyle=orthogonalEdgeStyle;rounded=0;orthogonalLoop=1;jettySize=auto;html=1;entryX=0;entryY=0.5;entryDx=0;entryDy=0;fontSize=11;exitX=1;exitY=0.5;exitDx=0;exitDy=0;" parent="1" source="agNFHFQZlJ_opT2V57MR-38" target="Mm4MfuI6_JCa-wtS7Yni-61" edge="1">
          <mxGeometry relative="1" as="geometry" />
        </mxCell>
        <mxCell id="Mm4MfuI6_JCa-wtS7Yni-89" value="&lt;span style=&quot;font-family: &amp;#34;courier new&amp;#34;&quot;&gt;-b &amp;lt;branch name&amp;gt;&amp;nbsp;&lt;/span&gt;" style="edgeLabel;html=1;align=center;verticalAlign=middle;resizable=0;points=[];fontSize=11;" parent="Mm4MfuI6_JCa-wtS7Yni-88" vertex="1" connectable="0">
          <mxGeometry x="-0.2972" y="2" relative="1" as="geometry">
            <mxPoint x="10" y="34.5" as="offset" />
          </mxGeometry>
        </mxCell>
        <mxCell id="agNFHFQZlJ_opT2V57MR-38" value="(5)&lt;br&gt;checkout" style="ellipse;whiteSpace=wrap;html=1;fontSize=20;" parent="1" vertex="1">
          <mxGeometry x="818" y="520" width="128" height="65" as="geometry" />
        </mxCell>
        <mxCell id="agNFHFQZlJ_opT2V57MR-48" style="edgeStyle=orthogonalEdgeStyle;rounded=0;orthogonalLoop=1;jettySize=auto;html=1;fontSize=11;" parent="1" source="agNFHFQZlJ_opT2V57MR-44" target="agNFHFQZlJ_opT2V57MR-47" edge="1">
          <mxGeometry relative="1" as="geometry" />
        </mxCell>
        <mxCell id="agNFHFQZlJ_opT2V57MR-44" value="diff" style="ellipse;whiteSpace=wrap;html=1;" parent="1" vertex="1">
          <mxGeometry x="1548" y="810" width="120" height="80" as="geometry" />
        </mxCell>
        <mxCell id="agNFHFQZlJ_opT2V57MR-46" style="edgeStyle=orthogonalEdgeStyle;rounded=0;orthogonalLoop=1;jettySize=auto;html=1;entryX=0;entryY=1;entryDx=0;entryDy=0;fontSize=11;exitX=1;exitY=0.75;exitDx=0;exitDy=0;" parent="1" source="iJWCfO42kXaOOCPk_vlR-12" target="agNFHFQZlJ_opT2V57MR-44" edge="1">
          <mxGeometry relative="1" as="geometry">
            <mxPoint x="341" y="726" as="sourcePoint" />
            <mxPoint x="771" y="676" as="targetPoint" />
            <Array as="points">
              <mxPoint x="1275" y="878" />
            </Array>
          </mxGeometry>
        </mxCell>
        <mxCell id="agNFHFQZlJ_opT2V57MR-47" value="&lt;font&gt;--- a/&amp;lt;filename&amp;gt;&lt;br&gt;+++ b/&amp;lt;filename&amp;gt;&lt;br&gt;&lt;/font&gt;" style="shape=document;whiteSpace=wrap;html=1;boundedLbl=1;align=left;fontFamily=Courier New;" parent="1" vertex="1">
          <mxGeometry x="1819" y="794" width="210" height="80" as="geometry" />
        </mxCell>
        <mxCell id="agNFHFQZlJ_opT2V57MR-51" value="--hard &amp;lt;branch ID&amp;gt;" style="edgeStyle=orthogonalEdgeStyle;rounded=0;orthogonalLoop=1;jettySize=auto;html=1;fontFamily=Courier New;fontSize=11;entryX=0;entryY=0.75;entryDx=0;entryDy=0;" parent="1" source="agNFHFQZlJ_opT2V57MR-49" target="iJWCfO42kXaOOCPk_vlR-11" edge="1">
          <mxGeometry x="-0.646" y="-10" relative="1" as="geometry">
            <mxPoint as="offset" />
            <mxPoint x="508" y="1100" as="targetPoint" />
            <Array as="points">
              <mxPoint x="271" y="1134" />
            </Array>
          </mxGeometry>
        </mxCell>
        <mxCell id="agNFHFQZlJ_opT2V57MR-53" value="&lt;br&gt;&lt;br&gt;&lt;span style=&quot;color: rgb(0 , 0 , 0) ; font-family: &amp;#34;courier new&amp;#34; ; font-size: 11px ; font-style: normal ; font-weight: 400 ; letter-spacing: normal ; text-align: center ; text-indent: 0px ; text-transform: none ; word-spacing: 0px ; background-color: rgb(255 , 255 , 255) ; display: inline ; float: none&quot;&gt;--soft &amp;lt;branch ID&amp;gt;&lt;/span&gt;&lt;br&gt;" style="edgeStyle=orthogonalEdgeStyle;rounded=0;orthogonalLoop=1;jettySize=auto;html=1;fontFamily=Courier New;fontSize=11;" parent="1" source="agNFHFQZlJ_opT2V57MR-49" edge="1">
          <mxGeometry relative="1" as="geometry">
            <mxPoint x="111" y="340" as="targetPoint" />
          </mxGeometry>
        </mxCell>
        <mxCell id="agNFHFQZlJ_opT2V57MR-49" value="reset" style="ellipse;whiteSpace=wrap;html=1;" parent="1" vertex="1">
          <mxGeometry x="211" y="450" width="120" height="80" as="geometry" />
        </mxCell>
        <mxCell id="Mm4MfuI6_JCa-wtS7Yni-41" style="edgeStyle=orthogonalEdgeStyle;rounded=0;orthogonalLoop=1;jettySize=auto;html=1;fontSize=16;" parent="1" source="agNFHFQZlJ_opT2V57MR-54" target="agNFHFQZlJ_opT2V57MR-44" edge="1">
          <mxGeometry relative="1" as="geometry" />
        </mxCell>
        <mxCell id="agNFHFQZlJ_opT2V57MR-54" value="show" style="ellipse;whiteSpace=wrap;html=1;" parent="1" vertex="1">
          <mxGeometry x="1548" y="904" width="120" height="80" as="geometry" />
        </mxCell>
        <mxCell id="Mm4MfuI6_JCa-wtS7Yni-11" value="Git Repository&lt;br&gt;&lt;span style=&quot;font-weight: normal&quot;&gt;&lt;font face=&quot;Courier New&quot;&gt;&amp;lt;Working Directory&amp;gt;&lt;br&gt;&lt;/font&gt;&lt;/span&gt;&lt;span style=&quot;font-weight: normal&quot;&gt;&lt;font face=&quot;Courier New&quot;&gt;&lt;br&gt;&lt;/font&gt;&lt;/span&gt;" style="swimlane;html=1;startSize=60;horizontal=1;containerType=tree;labelBorderColor=#78D6FF;" parent="1" vertex="1">
          <mxGeometry x="358" y="-170" width="1300" height="625" as="geometry" />
        </mxCell>
        <mxCell id="Mm4MfuI6_JCa-wtS7Yni-13" value="Master" style="whiteSpace=wrap;html=1;treeFolding=1;treeMoving=1;newEdgeStyle={&quot;edgeStyle&quot;:&quot;elbowEdgeStyle&quot;,&quot;startArrow&quot;:&quot;none&quot;,&quot;endArrow&quot;:&quot;none&quot;};" parent="Mm4MfuI6_JCa-wtS7Yni-11" vertex="1">
          <mxGeometry x="140" y="114" width="120" height="40" as="geometry" />
        </mxCell>
        <mxCell id="Mm4MfuI6_JCa-wtS7Yni-53" style="edgeStyle=orthogonalEdgeStyle;rounded=0;orthogonalLoop=1;jettySize=auto;html=1;entryX=0.5;entryY=0;entryDx=0;entryDy=0;fontSize=16;exitX=0.5;exitY=1;exitDx=0;exitDy=0;" parent="Mm4MfuI6_JCa-wtS7Yni-11" source="Mm4MfuI6_JCa-wtS7Yni-84" target="Mm4MfuI6_JCa-wtS7Yni-52" edge="1">
          <mxGeometry relative="1" as="geometry">
            <mxPoint x="390" y="181.5" as="sourcePoint" />
            <Array as="points">
              <mxPoint x="750" y="211.5" />
              <mxPoint x="750" y="211.5" />
            </Array>
          </mxGeometry>
        </mxCell>
        <mxCell id="Mm4MfuI6_JCa-wtS7Yni-23" value="" style="edgeStyle=elbowEdgeStyle;elbow=vertical;startArrow=none;endArrow=none;rounded=0;entryX=0.5;entryY=1;entryDx=0;entryDy=0;" parent="Mm4MfuI6_JCa-wtS7Yni-11" source="Mm4MfuI6_JCa-wtS7Yni-24" target="Mm4MfuI6_JCa-wtS7Yni-13" edge="1">
          <mxGeometry relative="1" as="geometry">
            <mxPoint x="100" y="234" as="sourcePoint" />
            <mxPoint x="40" y="214" as="targetPoint" />
          </mxGeometry>
        </mxCell>
        <mxCell id="Mm4MfuI6_JCa-wtS7Yni-24" value="V1" style="whiteSpace=wrap;html=1;treeFolding=1;treeMoving=1;newEdgeStyle={&quot;edgeStyle&quot;:&quot;elbowEdgeStyle&quot;,&quot;startArrow&quot;:&quot;none&quot;,&quot;endArrow&quot;:&quot;none&quot;};" parent="Mm4MfuI6_JCa-wtS7Yni-11" vertex="1">
          <mxGeometry x="140" y="234" width="120" height="40" as="geometry" />
        </mxCell>
        <mxCell id="Mm4MfuI6_JCa-wtS7Yni-28" value="" style="edgeStyle=elbowEdgeStyle;elbow=vertical;startArrow=none;endArrow=none;rounded=0;" parent="Mm4MfuI6_JCa-wtS7Yni-11" source="Mm4MfuI6_JCa-wtS7Yni-24" target="Mm4MfuI6_JCa-wtS7Yni-29" edge="1">
          <mxGeometry relative="1" as="geometry">
            <mxPoint x="550" y="419" as="sourcePoint" />
            <Array as="points">
              <mxPoint x="270" y="364" />
            </Array>
          </mxGeometry>
        </mxCell>
        <mxCell id="Mm4MfuI6_JCa-wtS7Yni-29" value="&amp;lt;filename B&amp;gt;&lt;br&gt;r&lt;i&gt;1&lt;/i&gt;" style="whiteSpace=wrap;html=1;treeFolding=1;treeMoving=1;newEdgeStyle={&quot;edgeStyle&quot;:&quot;elbowEdgeStyle&quot;,&quot;startArrow&quot;:&quot;none&quot;,&quot;endArrow&quot;:&quot;none&quot;};" parent="Mm4MfuI6_JCa-wtS7Yni-11" vertex="1">
          <mxGeometry x="235" y="344" width="75" height="40" as="geometry" />
        </mxCell>
        <mxCell id="Mm4MfuI6_JCa-wtS7Yni-60" style="edgeStyle=orthogonalEdgeStyle;rounded=0;orthogonalLoop=1;jettySize=auto;html=1;fontSize=16;" parent="Mm4MfuI6_JCa-wtS7Yni-11" source="Mm4MfuI6_JCa-wtS7Yni-4" target="Mm4MfuI6_JCa-wtS7Yni-29" edge="1">
          <mxGeometry relative="1" as="geometry" />
        </mxCell>
        <mxCell id="Mm4MfuI6_JCa-wtS7Yni-4" value="" style="shape=sumEllipse;perimeter=ellipsePerimeter;whiteSpace=wrap;html=1;backgroundOutline=1;opacity=50;" parent="Mm4MfuI6_JCa-wtS7Yni-11" vertex="1">
          <mxGeometry x="110" y="346.5" width="40" height="35" as="geometry" />
        </mxCell>
        <mxCell id="Mm4MfuI6_JCa-wtS7Yni-44" value="" style="edgeStyle=elbowEdgeStyle;elbow=vertical;startArrow=none;endArrow=none;rounded=0;" parent="Mm4MfuI6_JCa-wtS7Yni-11" source="Mm4MfuI6_JCa-wtS7Yni-24" target="Mm4MfuI6_JCa-wtS7Yni-45" edge="1">
          <mxGeometry relative="1" as="geometry">
            <mxPoint x="550.0000000000005" y="414" as="sourcePoint" />
            <Array as="points">
              <mxPoint x="270" y="314" />
            </Array>
          </mxGeometry>
        </mxCell>
        <mxCell id="Mm4MfuI6_JCa-wtS7Yni-45" value="&amp;lt;filename A&amp;gt; r&lt;i&gt;1&lt;/i&gt;" style="whiteSpace=wrap;html=1;treeFolding=1;treeMoving=1;newEdgeStyle={&quot;edgeStyle&quot;:&quot;elbowEdgeStyle&quot;,&quot;startArrow&quot;:&quot;none&quot;,&quot;endArrow&quot;:&quot;none&quot;};" parent="Mm4MfuI6_JCa-wtS7Yni-11" vertex="1">
          <mxGeometry x="235" y="291.5" width="75" height="40" as="geometry" />
        </mxCell>
        <mxCell id="Mm4MfuI6_JCa-wtS7Yni-48" value="" style="edgeStyle=elbowEdgeStyle;elbow=vertical;startArrow=none;endArrow=none;rounded=0;" parent="Mm4MfuI6_JCa-wtS7Yni-11" source="Mm4MfuI6_JCa-wtS7Yni-24" target="Mm4MfuI6_JCa-wtS7Yni-49" edge="1">
          <mxGeometry relative="1" as="geometry">
            <mxPoint x="550.0000000000005" y="404" as="sourcePoint" />
            <Array as="points">
              <mxPoint x="200" y="424" />
              <mxPoint x="280" y="424" />
            </Array>
          </mxGeometry>
        </mxCell>
        <mxCell id="Mm4MfuI6_JCa-wtS7Yni-49" value="&amp;lt;filename C&lt;br&gt;r&lt;i&gt;1&lt;/i&gt;" style="whiteSpace=wrap;html=1;treeFolding=1;treeMoving=1;newEdgeStyle={&quot;edgeStyle&quot;:&quot;elbowEdgeStyle&quot;,&quot;startArrow&quot;:&quot;none&quot;,&quot;endArrow&quot;:&quot;none&quot;};" parent="Mm4MfuI6_JCa-wtS7Yni-11" vertex="1">
          <mxGeometry x="235" y="404" width="75" height="40" as="geometry" />
        </mxCell>
        <mxCell id="Mm4MfuI6_JCa-wtS7Yni-57" style="edgeStyle=orthogonalEdgeStyle;rounded=0;orthogonalLoop=1;jettySize=auto;html=1;fontSize=16;entryX=0;entryY=0.5;entryDx=0;entryDy=0;exitX=0.5;exitY=1;exitDx=0;exitDy=0;" parent="Mm4MfuI6_JCa-wtS7Yni-11" source="Mm4MfuI6_JCa-wtS7Yni-52" target="Mm4MfuI6_JCa-wtS7Yni-55" edge="1">
          <mxGeometry relative="1" as="geometry" />
        </mxCell>
        <mxCell id="Mm4MfuI6_JCa-wtS7Yni-58" style="edgeStyle=orthogonalEdgeStyle;rounded=0;orthogonalLoop=1;jettySize=auto;html=1;entryX=0;entryY=0.5;entryDx=0;entryDy=0;fontSize=16;exitX=0.5;exitY=1;exitDx=0;exitDy=0;" parent="Mm4MfuI6_JCa-wtS7Yni-11" source="Mm4MfuI6_JCa-wtS7Yni-52" target="Mm4MfuI6_JCa-wtS7Yni-54" edge="1">
          <mxGeometry relative="1" as="geometry" />
        </mxCell>
        <mxCell id="Mm4MfuI6_JCa-wtS7Yni-52" value="V1" style="whiteSpace=wrap;html=1;treeFolding=1;treeMoving=1;newEdgeStyle={&quot;edgeStyle&quot;:&quot;elbowEdgeStyle&quot;,&quot;startArrow&quot;:&quot;none&quot;,&quot;endArrow&quot;:&quot;none&quot;};" parent="Mm4MfuI6_JCa-wtS7Yni-11" vertex="1">
          <mxGeometry x="690" y="241.5" width="120" height="40" as="geometry" />
        </mxCell>
        <mxCell id="Mm4MfuI6_JCa-wtS7Yni-54" value="&amp;lt;filename B&amp;gt;" style="whiteSpace=wrap;html=1;treeFolding=1;treeMoving=1;newEdgeStyle={&quot;edgeStyle&quot;:&quot;elbowEdgeStyle&quot;,&quot;startArrow&quot;:&quot;none&quot;,&quot;endArrow&quot;:&quot;none&quot;};" parent="Mm4MfuI6_JCa-wtS7Yni-11" vertex="1">
          <mxGeometry x="840" y="344" width="120" height="40" as="geometry" />
        </mxCell>
        <mxCell id="Mm4MfuI6_JCa-wtS7Yni-55" value="&amp;lt;filename A&amp;gt;" style="whiteSpace=wrap;html=1;treeFolding=1;treeMoving=1;newEdgeStyle={&quot;edgeStyle&quot;:&quot;elbowEdgeStyle&quot;,&quot;startArrow&quot;:&quot;none&quot;,&quot;endArrow&quot;:&quot;none&quot;};" parent="Mm4MfuI6_JCa-wtS7Yni-11" vertex="1">
          <mxGeometry x="840.0000000000005" y="291.5" width="120" height="40" as="geometry" />
        </mxCell>
        <mxCell id="Mm4MfuI6_JCa-wtS7Yni-56" value="&amp;lt;filename C" style="whiteSpace=wrap;html=1;treeFolding=1;treeMoving=1;newEdgeStyle={&quot;edgeStyle&quot;:&quot;elbowEdgeStyle&quot;,&quot;startArrow&quot;:&quot;none&quot;,&quot;endArrow&quot;:&quot;none&quot;};" parent="Mm4MfuI6_JCa-wtS7Yni-11" vertex="1">
          <mxGeometry x="840.0000000000005" y="404" width="120" height="40" as="geometry" />
        </mxCell>
        <mxCell id="Mm4MfuI6_JCa-wtS7Yni-59" style="edgeStyle=orthogonalEdgeStyle;rounded=0;orthogonalLoop=1;jettySize=auto;html=1;entryX=0;entryY=0.5;entryDx=0;entryDy=0;fontSize=16;exitX=0.5;exitY=1;exitDx=0;exitDy=0;" parent="Mm4MfuI6_JCa-wtS7Yni-11" source="Mm4MfuI6_JCa-wtS7Yni-52" target="Mm4MfuI6_JCa-wtS7Yni-56" edge="1">
          <mxGeometry relative="1" as="geometry">
            <mxPoint x="760.0000000000005" y="291.5" as="sourcePoint" />
            <mxPoint x="840.0000000000005" y="424" as="targetPoint" />
          </mxGeometry>
        </mxCell>
        <mxCell id="Mm4MfuI6_JCa-wtS7Yni-62" value="" style="edgeStyle=elbowEdgeStyle;elbow=vertical;startArrow=none;endArrow=none;rounded=0;" parent="Mm4MfuI6_JCa-wtS7Yni-11" source="Mm4MfuI6_JCa-wtS7Yni-45" target="Mm4MfuI6_JCa-wtS7Yni-63" edge="1">
          <mxGeometry relative="1" as="geometry">
            <mxPoint x="560" y="464" as="sourcePoint" />
            <Array as="points" />
          </mxGeometry>
        </mxCell>
        <mxCell id="Mm4MfuI6_JCa-wtS7Yni-63" value="&amp;lt;filename A&amp;gt;&lt;br&gt;r&lt;i&gt;2&lt;/i&gt;" style="whiteSpace=wrap;html=1;treeFolding=1;treeMoving=1;newEdgeStyle={&quot;edgeStyle&quot;:&quot;elbowEdgeStyle&quot;,&quot;startArrow&quot;:&quot;none&quot;,&quot;endArrow&quot;:&quot;none&quot;};" parent="Mm4MfuI6_JCa-wtS7Yni-11" vertex="1">
          <mxGeometry x="330" y="291.5" width="75" height="40" as="geometry" />
        </mxCell>
        <mxCell id="Mm4MfuI6_JCa-wtS7Yni-64" value="" style="edgeStyle=elbowEdgeStyle;elbow=vertical;startArrow=none;endArrow=none;rounded=0;" parent="Mm4MfuI6_JCa-wtS7Yni-11" source="Mm4MfuI6_JCa-wtS7Yni-63" target="Mm4MfuI6_JCa-wtS7Yni-65" edge="1">
          <mxGeometry relative="1" as="geometry">
            <mxPoint x="650" y="501.52941176470586" as="sourcePoint" />
            <Array as="points" />
          </mxGeometry>
        </mxCell>
        <mxCell id="Mm4MfuI6_JCa-wtS7Yni-65" value="&lt;em class=&quot;diigoHighlight id_f635f9527bdc57a73d4da7ce5d6d1d4a type_0 yellow&quot;&gt;&amp;lt;filename A&amp;gt;&lt;/em&gt;&lt;br&gt;&lt;em class=&quot;diigoHighlight id_f635f9527bdc57a73d4da7ce5d6d1d4a type_0 yellow&quot;&gt;r&lt;i&gt;N&lt;/i&gt;&lt;span class=&quot;diigoHighlightCommentLocator&quot;&gt;&lt;div class=&quot;diigoIcon id_f635f9527bdc57a73d4da7ce5d6d1d4a type_9 TextIcon yellow&quot; title=&quot;&quot; style=&quot;bottom: 0px&quot;&gt;&lt;/div&gt;&lt;/span&gt;&lt;/em&gt;" style="whiteSpace=wrap;html=1;treeFolding=1;treeMoving=1;newEdgeStyle={&quot;edgeStyle&quot;:&quot;elbowEdgeStyle&quot;,&quot;startArrow&quot;:&quot;none&quot;,&quot;endArrow&quot;:&quot;none&quot;};" parent="Mm4MfuI6_JCa-wtS7Yni-11" vertex="1" collapsed="1">
          <mxGeometry x="430" y="291.5" width="75" height="40" as="geometry" />
        </mxCell>
        <mxCell id="Mm4MfuI6_JCa-wtS7Yni-66" value="" style="edgeStyle=elbowEdgeStyle;elbow=vertical;startArrow=none;endArrow=none;rounded=0;entryX=0;entryY=0.5;entryDx=0;entryDy=0;" parent="Mm4MfuI6_JCa-wtS7Yni-11" source="Mm4MfuI6_JCa-wtS7Yni-29" target="Mm4MfuI6_JCa-wtS7Yni-67" edge="1">
          <mxGeometry relative="1" as="geometry">
            <mxPoint x="560" y="464" as="sourcePoint" />
            <Array as="points" />
          </mxGeometry>
        </mxCell>
        <mxCell id="Mm4MfuI6_JCa-wtS7Yni-67" value="&amp;lt;filename B&amp;gt;&lt;br&gt;r&lt;i&gt;2&lt;/i&gt;" style="whiteSpace=wrap;html=1;treeFolding=1;treeMoving=1;newEdgeStyle={&quot;edgeStyle&quot;:&quot;elbowEdgeStyle&quot;,&quot;startArrow&quot;:&quot;none&quot;,&quot;endArrow&quot;:&quot;none&quot;};" parent="Mm4MfuI6_JCa-wtS7Yni-11" vertex="1">
          <mxGeometry x="330" y="344" width="75" height="40" as="geometry" />
        </mxCell>
        <mxCell id="Mm4MfuI6_JCa-wtS7Yni-83" value="" style="edgeStyle=elbowEdgeStyle;elbow=vertical;startArrow=none;endArrow=none;rounded=0;" parent="Mm4MfuI6_JCa-wtS7Yni-11" target="Mm4MfuI6_JCa-wtS7Yni-84" edge="1">
          <mxGeometry relative="1" as="geometry">
            <mxPoint x="260" y="150" as="sourcePoint" />
            <mxPoint x="40" y="214" as="targetPoint" />
            <Array as="points">
              <mxPoint x="720" y="150" />
            </Array>
          </mxGeometry>
        </mxCell>
        <mxCell id="Mm4MfuI6_JCa-wtS7Yni-84" value="Branch B" style="whiteSpace=wrap;html=1;treeFolding=1;treeMoving=1;newEdgeStyle={&quot;edgeStyle&quot;:&quot;elbowEdgeStyle&quot;,&quot;startArrow&quot;:&quot;none&quot;,&quot;endArrow&quot;:&quot;none&quot;};" parent="Mm4MfuI6_JCa-wtS7Yni-11" vertex="1">
          <mxGeometry x="690" y="171.5" width="120" height="40" as="geometry" />
        </mxCell>
        <mxCell id="Mm4MfuI6_JCa-wtS7Yni-92" value="&amp;lt;branch name&amp;gt;" style="whiteSpace=wrap;html=1;treeFolding=1;treeMoving=1;newEdgeStyle={&quot;edgeStyle&quot;:&quot;elbowEdgeStyle&quot;,&quot;startArrow&quot;:&quot;none&quot;,&quot;endArrow&quot;:&quot;none&quot;};" parent="Mm4MfuI6_JCa-wtS7Yni-11" vertex="1">
          <mxGeometry x="1140" y="171.5" width="120" height="40" as="geometry" />
        </mxCell>
        <mxCell id="Mm4MfuI6_JCa-wtS7Yni-93" style="edgeStyle=orthogonalEdgeStyle;rounded=0;orthogonalLoop=1;jettySize=auto;html=1;entryX=0;entryY=0.5;entryDx=0;entryDy=0;fontSize=11;exitX=1;exitY=0.5;exitDx=0;exitDy=0;" parent="Mm4MfuI6_JCa-wtS7Yni-11" source="Mm4MfuI6_JCa-wtS7Yni-95" target="Mm4MfuI6_JCa-wtS7Yni-92" edge="1">
          <mxGeometry relative="1" as="geometry">
            <Array as="points">
              <mxPoint x="1050" y="192" />
              <mxPoint x="1060" y="192" />
            </Array>
          </mxGeometry>
        </mxCell>
        <mxCell id="Mm4MfuI6_JCa-wtS7Yni-90" value="" style="shape=singleArrow;direction=west;whiteSpace=wrap;html=1;fontSize=11;opacity=50;rotation=-40;strokeColor=#FF3333;strokeWidth=10;" parent="Mm4MfuI6_JCa-wtS7Yni-11" vertex="1">
          <mxGeometry x="222.5" y="54" width="100" height="60" as="geometry" />
        </mxCell>
        <mxCell id="Mm4MfuI6_JCa-wtS7Yni-95" value="" style="shape=sumEllipse;perimeter=ellipsePerimeter;whiteSpace=wrap;html=1;backgroundOutline=1;opacity=50;" parent="Mm4MfuI6_JCa-wtS7Yni-11" vertex="1">
          <mxGeometry x="1060" y="174" width="40" height="35" as="geometry" />
        </mxCell>
        <mxCell id="63NR2rLTnMkjoOHxvfDr-45" value="" style="edgeStyle=elbowEdgeStyle;elbow=vertical;startArrow=none;endArrow=none;rounded=0;" parent="Mm4MfuI6_JCa-wtS7Yni-11" source="Mm4MfuI6_JCa-wtS7Yni-13" target="63NR2rLTnMkjoOHxvfDr-46" edge="1">
          <mxGeometry relative="1" as="geometry">
            <mxPoint x="500.00000000000045" y="423.99999999999955" as="sourcePoint" />
            <mxPoint x="40" y="214" as="targetPoint" />
          </mxGeometry>
        </mxCell>
        <mxCell id="63NR2rLTnMkjoOHxvfDr-46" value="Main" style="whiteSpace=wrap;html=1;treeFolding=1;treeMoving=1;newEdgeStyle={&quot;edgeStyle&quot;:&quot;elbowEdgeStyle&quot;,&quot;startArrow&quot;:&quot;none&quot;,&quot;endArrow&quot;:&quot;none&quot;};" parent="Mm4MfuI6_JCa-wtS7Yni-11" vertex="1">
          <mxGeometry x="10" y="114" width="120" height="40" as="geometry" />
        </mxCell>
        <mxCell id="LIZA5RweMX0P5HlMQcV--17" value="See both local and remote" style="shape=callout;whiteSpace=wrap;html=1;perimeter=calloutPerimeter;position2=1;opacity=30;verticalAlign=top;" vertex="1" parent="Mm4MfuI6_JCa-wtS7Yni-11">
          <mxGeometry x="572" y="460" width="178" height="140" as="geometry" />
        </mxCell>
        <mxCell id="LIZA5RweMX0P5HlMQcV--13" value="See both local and remote" style="shape=callout;whiteSpace=wrap;html=1;perimeter=calloutPerimeter;position2=1;opacity=30;verticalAlign=bottom;size=25;position=0.38;" vertex="1" parent="Mm4MfuI6_JCa-wtS7Yni-11">
          <mxGeometry x="555" y="570" width="150" height="55" as="geometry" />
        </mxCell>
        <mxCell id="agNFHFQZlJ_opT2V57MR-50" value="" style="edgeStyle=orthogonalEdgeStyle;rounded=0;orthogonalLoop=1;jettySize=auto;html=1;exitX=1;exitY=0.5;exitDx=0;exitDy=0;entryX=0;entryY=0.5;entryDx=0;entryDy=0;" parent="1" source="agNFHFQZlJ_opT2V57MR-49" target="Mm4MfuI6_JCa-wtS7Yni-4" edge="1">
          <mxGeometry y="18" relative="1" as="geometry">
            <mxPoint x="515.03" y="289" as="sourcePoint" />
            <mxPoint x="501" y="140" as="targetPoint" />
            <Array as="points">
              <mxPoint x="418" y="490" />
              <mxPoint x="418" y="194" />
            </Array>
            <mxPoint as="offset" />
          </mxGeometry>
        </mxCell>
        <mxCell id="agNFHFQZlJ_opT2V57MR-17" style="edgeStyle=orthogonalEdgeStyle;rounded=0;orthogonalLoop=1;jettySize=auto;html=1;exitX=1;exitY=0.5;exitDx=0;exitDy=0;entryX=0.5;entryY=1;entryDx=0;entryDy=0;" parent="1" source="agNFHFQZlJ_opT2V57MR-11" target="Mm4MfuI6_JCa-wtS7Yni-65" edge="1">
          <mxGeometry relative="1" as="geometry">
            <mxPoint x="878" y="280" as="targetPoint" />
            <Array as="points">
              <mxPoint x="826" y="440" />
            </Array>
          </mxGeometry>
        </mxCell>
        <mxCell id="agNFHFQZlJ_opT2V57MR-39" value="&lt;font face=&quot;Courier New&quot;&gt;-- &amp;lt;filename&amp;gt;&lt;/font&gt;" style="edgeStyle=orthogonalEdgeStyle;rounded=0;orthogonalLoop=1;jettySize=auto;html=1;entryX=0;entryY=0.5;entryDx=0;entryDy=0;" parent="1" source="Mm4MfuI6_JCa-wtS7Yni-49" target="agNFHFQZlJ_opT2V57MR-38" edge="1">
          <mxGeometry x="0.6211" relative="1" as="geometry">
            <Array as="points">
              <mxPoint x="788" y="254" />
              <mxPoint x="788" y="553" />
            </Array>
            <mxPoint as="offset" />
            <mxPoint x="693.5" y="300" as="sourcePoint" />
          </mxGeometry>
        </mxCell>
        <mxCell id="nB1v8J1BD9l_UF2UNNeq-2" style="edgeStyle=orthogonalEdgeStyle;rounded=0;orthogonalLoop=1;jettySize=auto;html=1;entryX=0;entryY=0.5;entryDx=0;entryDy=0;fontSize=12;exitX=1;exitY=0.5;exitDx=0;exitDy=0;" parent="1" source="Mm4MfuI6_JCa-wtS7Yni-61" target="nB1v8J1BD9l_UF2UNNeq-1" edge="1">
          <mxGeometry relative="1" as="geometry">
            <Array as="points">
              <mxPoint x="1428" y="552" />
              <mxPoint x="1428" y="450" />
              <mxPoint x="1815" y="450" />
            </Array>
          </mxGeometry>
        </mxCell>
        <mxCell id="Mm4MfuI6_JCa-wtS7Yni-61" value="(4)&lt;br&gt;branch" style="ellipse;whiteSpace=wrap;html=1;" parent="1" vertex="1">
          <mxGeometry x="1019" y="512.5" width="124" height="80" as="geometry" />
        </mxCell>
        <mxCell id="Mm4MfuI6_JCa-wtS7Yni-69" value="&lt;font face=&quot;Courier New&quot;&gt;&amp;lt;Branch name&amp;gt;&lt;/font&gt;" style="edgeStyle=orthogonalEdgeStyle;rounded=0;orthogonalLoop=1;jettySize=auto;html=1;entryX=0.5;entryY=0;entryDx=0;entryDy=0;" parent="1" source="Mm4MfuI6_JCa-wtS7Yni-13" target="agNFHFQZlJ_opT2V57MR-38" edge="1">
          <mxGeometry x="0.9254" y="18" relative="1" as="geometry">
            <Array as="points">
              <mxPoint x="618" y="-20" />
              <mxPoint x="952" y="-20" />
            </Array>
            <mxPoint as="offset" />
            <mxPoint x="618" y="-26" as="sourcePoint" />
            <mxPoint x="989" y="447.9999999999998" as="targetPoint" />
          </mxGeometry>
        </mxCell>
        <mxCell id="Mm4MfuI6_JCa-wtS7Yni-87" value="merge" style="ellipse;whiteSpace=wrap;html=1;" parent="1" vertex="1">
          <mxGeometry x="1168" y="335" width="124" height="80" as="geometry" />
        </mxCell>
        <mxCell id="Mm4MfuI6_JCa-wtS7Yni-96" style="edgeStyle=orthogonalEdgeStyle;rounded=0;orthogonalLoop=1;jettySize=auto;html=1;entryX=0;entryY=0.5;entryDx=0;entryDy=0;fontSize=11;exitX=1;exitY=0.5;exitDx=0;exitDy=0;" parent="1" source="Mm4MfuI6_JCa-wtS7Yni-61" target="Mm4MfuI6_JCa-wtS7Yni-95" edge="1">
          <mxGeometry relative="1" as="geometry">
            <mxPoint x="1112" y="440" as="sourcePoint" />
            <mxPoint x="1408.0000000000005" y="21.5" as="targetPoint" />
            <Array as="points">
              <mxPoint x="1398" y="552" />
              <mxPoint x="1398" y="22" />
            </Array>
          </mxGeometry>
        </mxCell>
        <mxCell id="Mm4MfuI6_JCa-wtS7Yni-97" value="&lt;font face=&quot;Courier New&quot;&gt;-d &amp;lt;branch name&amp;gt;&lt;/font&gt;" style="edgeLabel;html=1;align=center;verticalAlign=middle;resizable=0;points=[];fontSize=11;" parent="Mm4MfuI6_JCa-wtS7Yni-96" vertex="1" connectable="0">
          <mxGeometry x="-0.3786" relative="1" as="geometry">
            <mxPoint x="147.41" y="-112.47" as="offset" />
          </mxGeometry>
        </mxCell>
        <mxCell id="nB1v8J1BD9l_UF2UNNeq-1" value="&lt;span style=&quot;font-size: 11px&quot;&gt;&amp;nbsp; &amp;nbsp; &amp;nbsp;master&lt;/span&gt;&lt;br&gt;&lt;span style=&quot;font-size: 11px&quot;&gt;*&amp;nbsp; &amp;nbsp; &amp;lt;Branch A&amp;gt;&lt;/span&gt;&lt;br&gt;&lt;span style=&quot;font-size: 11px&quot;&gt;&amp;nbsp; &amp;nbsp; &amp;nbsp;&amp;lt;Branch B&amp;gt;&lt;/span&gt;&lt;br&gt;&lt;span style=&quot;font-size: 11px&quot;&gt;...&lt;/span&gt;" style="shape=document;whiteSpace=wrap;html=1;boundedLbl=1;align=left;fontFamily=Courier New;" parent="1" vertex="1">
          <mxGeometry x="1815" y="415" width="330" height="80" as="geometry" />
        </mxCell>
        <mxCell id="nB1v8J1BD9l_UF2UNNeq-3" value="&lt;span style=&quot;font-size: 11px&quot;&gt;*&amp;nbsp; &amp;nbsp; master&amp;nbsp; &amp;nbsp; &amp;nbsp; &amp;nbsp; &amp;lt;branch ID&amp;gt;&amp;nbsp; &amp;nbsp; &amp;lt;most recent committ comment&amp;gt;&lt;/span&gt;&lt;br&gt;&lt;span style=&quot;font-size: 11px&quot;&gt;&amp;nbsp; &amp;nbsp; &amp;nbsp;&amp;lt;Branch A&amp;gt;&lt;/span&gt;&lt;span style=&quot;font-size: 11px&quot;&gt;&amp;nbsp; &amp;nbsp; &amp;lt;branch ID&amp;gt;&amp;nbsp; &amp;nbsp; &amp;lt;most recent committ comment&amp;gt;&lt;/span&gt;&lt;br&gt;&lt;span style=&quot;font-size: 11px&quot;&gt;&amp;nbsp; &amp;nbsp; &amp;nbsp;&amp;lt;Branch B&amp;gt;&lt;/span&gt;&lt;span style=&quot;font-size: 11px&quot;&gt;&amp;nbsp; &amp;nbsp; &amp;lt;branch ID&amp;gt;&amp;nbsp; &amp;nbsp; &amp;lt;&lt;/span&gt;&lt;span style=&quot;font-size: 11px&quot;&gt;most recent committ&amp;nbsp;&lt;/span&gt;&lt;span style=&quot;font-size: 11px&quot;&gt;comment&amp;gt;&lt;/span&gt;&lt;br&gt;&lt;span style=&quot;font-size: 11px&quot;&gt;...&lt;/span&gt;" style="shape=document;whiteSpace=wrap;html=1;boundedLbl=1;align=left;fontFamily=Courier New;" parent="1" vertex="1">
          <mxGeometry x="1815" y="512.5" width="483" height="80" as="geometry" />
        </mxCell>
        <mxCell id="nB1v8J1BD9l_UF2UNNeq-4" value="&lt;p&gt;&lt;font face=&quot;Courier New&quot;&gt;-v&amp;nbsp;&lt;/font&gt;&lt;/p&gt;" style="edgeStyle=orthogonalEdgeStyle;rounded=0;orthogonalLoop=1;jettySize=auto;html=1;entryX=0;entryY=0.5;entryDx=0;entryDy=0;fontSize=12;labelBackgroundColor=none;exitX=1;exitY=0.5;exitDx=0;exitDy=0;" parent="1" source="Mm4MfuI6_JCa-wtS7Yni-61" target="nB1v8J1BD9l_UF2UNNeq-3" edge="1">
          <mxGeometry x="0.3244" y="12" relative="1" as="geometry">
            <mxPoint x="1458" y="460" as="sourcePoint" />
            <mxPoint x="1825" y="410" as="targetPoint" />
            <Array as="points">
              <mxPoint x="1658" y="553" />
              <mxPoint x="1658" y="553" />
            </Array>
            <mxPoint as="offset" />
          </mxGeometry>
        </mxCell>
        <mxCell id="nB1v8J1BD9l_UF2UNNeq-6" value="&lt;font face=&quot;Courier New&quot;&gt;by default, against whichever might be&lt;br&gt;&amp;nbsp;the master branch at this time&amp;nbsp;&lt;/font&gt;" style="edgeStyle=orthogonalEdgeStyle;rounded=0;orthogonalLoop=1;jettySize=auto;html=1;entryX=0.75;entryY=1;entryDx=0;entryDy=0;fontSize=11;exitX=0;exitY=0.5;exitDx=0;exitDy=0;horizontal=0;align=left;labelBackgroundColor=none;" parent="1" source="Mm4MfuI6_JCa-wtS7Yni-87" target="Mm4MfuI6_JCa-wtS7Yni-13" edge="1">
          <mxGeometry x="-0.2497" relative="1" as="geometry">
            <mxPoint x="1059.9999999999995" y="410" as="sourcePoint" />
            <Array as="points">
              <mxPoint x="988" y="375" />
              <mxPoint x="988" y="32" />
              <mxPoint x="588" y="32" />
            </Array>
            <mxPoint as="offset" />
            <mxPoint x="1058" y="31.5" as="targetPoint" />
          </mxGeometry>
        </mxCell>
        <mxCell id="nB1v8J1BD9l_UF2UNNeq-7" value="&lt;font face=&quot;Courier New&quot;&gt;&amp;lt;source branch&amp;gt;&lt;/font&gt;" style="edgeStyle=orthogonalEdgeStyle;rounded=0;orthogonalLoop=1;jettySize=auto;html=1;entryX=1;entryY=0.5;entryDx=0;entryDy=0;fontSize=11;horizontal=0;exitX=1;exitY=0.25;exitDx=0;exitDy=0;" parent="1" source="Mm4MfuI6_JCa-wtS7Yni-84" target="Mm4MfuI6_JCa-wtS7Yni-87" edge="1">
          <mxGeometry x="0.8276" y="5" relative="1" as="geometry">
            <mxPoint x="1168" y="10" as="sourcePoint" />
            <Array as="points">
              <mxPoint x="1168" y="10" />
              <mxPoint x="1378" y="10" />
              <mxPoint x="1378" y="375" />
            </Array>
            <mxPoint x="1" as="offset" />
            <mxPoint x="598" y="-6" as="targetPoint" />
          </mxGeometry>
        </mxCell>
        <mxCell id="63NR2rLTnMkjoOHxvfDr-39" value="&lt;font face=&quot;Courier New&quot;&gt;add &amp;lt;Local Name for GitHub repository&amp;gt; &amp;lt;GitHub Repository URL&amp;gt;&lt;/font&gt;" style="edgeStyle=orthogonalEdgeStyle;rounded=0;orthogonalLoop=1;jettySize=auto;html=1;entryX=0.25;entryY=1;entryDx=0;entryDy=0;" parent="1" source="63NR2rLTnMkjoOHxvfDr-1" target="63NR2rLTnMkjoOHxvfDr-8" edge="1">
          <mxGeometry x="-0.7949" relative="1" as="geometry">
            <mxPoint x="559.5" y="-760" as="targetPoint" />
            <mxPoint as="offset" />
            <Array as="points">
              <mxPoint x="548" y="-610" />
              <mxPoint x="521" y="-610" />
            </Array>
          </mxGeometry>
        </mxCell>
        <mxCell id="63NR2rLTnMkjoOHxvfDr-1" value="(10)&lt;br&gt;remote" style="ellipse;whiteSpace=wrap;html=1;" parent="1" vertex="1">
          <mxGeometry x="485.5" y="-520" width="124" height="80" as="geometry" />
        </mxCell>
        <mxCell id="63NR2rLTnMkjoOHxvfDr-2" value="&lt;br&gt;&lt;br&gt;&lt;span style=&quot;color: rgb(0 , 0 , 0) ; font-family: &amp;#34;helvetica&amp;#34; ; font-size: 20px ; font-style: normal ; font-weight: 700 ; letter-spacing: normal ; text-align: center ; text-indent: 0px ; text-transform: none ; word-spacing: 0px ; background-color: rgb(248 , 249 , 250) ; display: inline ; float: none&quot;&gt;GitHub DFD cheatsheet&lt;/span&gt;&lt;br&gt;" style="shape=curlyBracket;whiteSpace=wrap;html=1;rounded=1;" parent="1" vertex="1">
          <mxGeometry x="50" y="-1130" width="20" height="750" as="geometry" />
        </mxCell>
        <mxCell id="63NR2rLTnMkjoOHxvfDr-3" value="&#xa;&#xa;&lt;span style=&quot;color: rgb(0, 0, 0); font-family: helvetica; font-size: 20px; font-style: normal; font-weight: 700; letter-spacing: normal; text-align: center; text-indent: 0px; text-transform: none; word-spacing: 0px; background-color: rgb(248, 249, 250); display: inline; float: none;&quot;&gt;Git DFD cheatsheet&lt;/span&gt;&#xa;&#xa;" style="shape=curlyBracket;whiteSpace=wrap;html=1;rounded=1;" parent="1" vertex="1">
          <mxGeometry x="50" y="-350" width="20" height="1450" as="geometry" />
        </mxCell>
        <mxCell id="63NR2rLTnMkjoOHxvfDr-4" value="GitHub Repository&lt;br&gt;&lt;span style=&quot;font-weight: normal&quot;&gt;&lt;font face=&quot;Courier New&quot;&gt;&amp;lt;GitHub repository Name&amp;gt;&lt;br&gt;&amp;lt;URL&amp;gt;&lt;/font&gt;&lt;/span&gt;" style="swimlane;html=1;startSize=90;horizontal=1;containerType=tree;labelBorderColor=#78D6FF;" parent="1" vertex="1">
          <mxGeometry x="351" y="-1060" width="1300" height="490" as="geometry" />
        </mxCell>
        <mxCell id="63NR2rLTnMkjoOHxvfDr-5" value="Master" style="whiteSpace=wrap;html=1;treeFolding=1;treeMoving=1;newEdgeStyle={&quot;edgeStyle&quot;:&quot;elbowEdgeStyle&quot;,&quot;startArrow&quot;:&quot;none&quot;,&quot;endArrow&quot;:&quot;none&quot;};" parent="63NR2rLTnMkjoOHxvfDr-4" vertex="1">
          <mxGeometry x="140" y="114" width="120" height="40" as="geometry" />
        </mxCell>
        <mxCell id="63NR2rLTnMkjoOHxvfDr-6" style="edgeStyle=orthogonalEdgeStyle;rounded=0;orthogonalLoop=1;jettySize=auto;html=1;entryX=0.5;entryY=0;entryDx=0;entryDy=0;fontSize=16;exitX=0.5;exitY=1;exitDx=0;exitDy=0;" parent="63NR2rLTnMkjoOHxvfDr-4" source="63NR2rLTnMkjoOHxvfDr-31" target="63NR2rLTnMkjoOHxvfDr-19" edge="1">
          <mxGeometry relative="1" as="geometry">
            <mxPoint x="390" y="181.5" as="sourcePoint" />
            <Array as="points">
              <mxPoint x="750" y="211.5" />
              <mxPoint x="750" y="211.5" />
            </Array>
          </mxGeometry>
        </mxCell>
        <mxCell id="63NR2rLTnMkjoOHxvfDr-7" value="" style="edgeStyle=elbowEdgeStyle;elbow=vertical;startArrow=none;endArrow=none;rounded=0;entryX=0.5;entryY=1;entryDx=0;entryDy=0;" parent="63NR2rLTnMkjoOHxvfDr-4" source="63NR2rLTnMkjoOHxvfDr-8" target="63NR2rLTnMkjoOHxvfDr-5" edge="1">
          <mxGeometry relative="1" as="geometry">
            <mxPoint x="100" y="234" as="sourcePoint" />
            <mxPoint x="40" y="214" as="targetPoint" />
          </mxGeometry>
        </mxCell>
        <mxCell id="63NR2rLTnMkjoOHxvfDr-8" value="V1" style="whiteSpace=wrap;html=1;treeFolding=1;treeMoving=1;newEdgeStyle={&quot;edgeStyle&quot;:&quot;elbowEdgeStyle&quot;,&quot;startArrow&quot;:&quot;none&quot;,&quot;endArrow&quot;:&quot;none&quot;};" parent="63NR2rLTnMkjoOHxvfDr-4" vertex="1">
          <mxGeometry x="140" y="234" width="120" height="40" as="geometry" />
        </mxCell>
        <mxCell id="63NR2rLTnMkjoOHxvfDr-9" value="" style="edgeStyle=elbowEdgeStyle;elbow=vertical;startArrow=none;endArrow=none;rounded=0;" parent="63NR2rLTnMkjoOHxvfDr-4" source="63NR2rLTnMkjoOHxvfDr-8" target="63NR2rLTnMkjoOHxvfDr-10" edge="1">
          <mxGeometry relative="1" as="geometry">
            <mxPoint x="550" y="419" as="sourcePoint" />
            <Array as="points">
              <mxPoint x="270" y="364" />
            </Array>
          </mxGeometry>
        </mxCell>
        <mxCell id="63NR2rLTnMkjoOHxvfDr-10" value="&amp;lt;filename B&amp;gt;&lt;br&gt;r&lt;i&gt;1&lt;/i&gt;" style="whiteSpace=wrap;html=1;treeFolding=1;treeMoving=1;newEdgeStyle={&quot;edgeStyle&quot;:&quot;elbowEdgeStyle&quot;,&quot;startArrow&quot;:&quot;none&quot;,&quot;endArrow&quot;:&quot;none&quot;};" parent="63NR2rLTnMkjoOHxvfDr-4" vertex="1">
          <mxGeometry x="235" y="344" width="75" height="40" as="geometry" />
        </mxCell>
        <mxCell id="63NR2rLTnMkjoOHxvfDr-11" style="edgeStyle=orthogonalEdgeStyle;rounded=0;orthogonalLoop=1;jettySize=auto;html=1;fontSize=16;" parent="63NR2rLTnMkjoOHxvfDr-4" source="63NR2rLTnMkjoOHxvfDr-12" target="63NR2rLTnMkjoOHxvfDr-10" edge="1">
          <mxGeometry relative="1" as="geometry" />
        </mxCell>
        <mxCell id="63NR2rLTnMkjoOHxvfDr-12" value="" style="shape=sumEllipse;perimeter=ellipsePerimeter;whiteSpace=wrap;html=1;backgroundOutline=1;opacity=50;" parent="63NR2rLTnMkjoOHxvfDr-4" vertex="1">
          <mxGeometry x="110" y="346.5" width="40" height="35" as="geometry" />
        </mxCell>
        <mxCell id="63NR2rLTnMkjoOHxvfDr-13" value="" style="edgeStyle=elbowEdgeStyle;elbow=vertical;startArrow=none;endArrow=none;rounded=0;" parent="63NR2rLTnMkjoOHxvfDr-4" source="63NR2rLTnMkjoOHxvfDr-8" target="63NR2rLTnMkjoOHxvfDr-14" edge="1">
          <mxGeometry relative="1" as="geometry">
            <mxPoint x="550.0000000000005" y="414" as="sourcePoint" />
            <Array as="points">
              <mxPoint x="270" y="314" />
            </Array>
          </mxGeometry>
        </mxCell>
        <mxCell id="63NR2rLTnMkjoOHxvfDr-14" value="&amp;lt;filename A&amp;gt; r&lt;i&gt;1&lt;/i&gt;" style="whiteSpace=wrap;html=1;treeFolding=1;treeMoving=1;newEdgeStyle={&quot;edgeStyle&quot;:&quot;elbowEdgeStyle&quot;,&quot;startArrow&quot;:&quot;none&quot;,&quot;endArrow&quot;:&quot;none&quot;};" parent="63NR2rLTnMkjoOHxvfDr-4" vertex="1">
          <mxGeometry x="235" y="291.5" width="75" height="40" as="geometry" />
        </mxCell>
        <mxCell id="63NR2rLTnMkjoOHxvfDr-15" value="" style="edgeStyle=elbowEdgeStyle;elbow=vertical;startArrow=none;endArrow=none;rounded=0;" parent="63NR2rLTnMkjoOHxvfDr-4" source="63NR2rLTnMkjoOHxvfDr-8" target="63NR2rLTnMkjoOHxvfDr-16" edge="1">
          <mxGeometry relative="1" as="geometry">
            <mxPoint x="550.0000000000005" y="404" as="sourcePoint" />
            <Array as="points">
              <mxPoint x="200" y="424" />
              <mxPoint x="280" y="424" />
            </Array>
          </mxGeometry>
        </mxCell>
        <mxCell id="63NR2rLTnMkjoOHxvfDr-16" value="&amp;lt;filename C&lt;br&gt;r&lt;i&gt;1&lt;/i&gt;" style="whiteSpace=wrap;html=1;treeFolding=1;treeMoving=1;newEdgeStyle={&quot;edgeStyle&quot;:&quot;elbowEdgeStyle&quot;,&quot;startArrow&quot;:&quot;none&quot;,&quot;endArrow&quot;:&quot;none&quot;};" parent="63NR2rLTnMkjoOHxvfDr-4" vertex="1">
          <mxGeometry x="235" y="404" width="75" height="40" as="geometry" />
        </mxCell>
        <mxCell id="63NR2rLTnMkjoOHxvfDr-17" style="edgeStyle=orthogonalEdgeStyle;rounded=0;orthogonalLoop=1;jettySize=auto;html=1;fontSize=16;entryX=0;entryY=0.5;entryDx=0;entryDy=0;exitX=0.5;exitY=1;exitDx=0;exitDy=0;" parent="63NR2rLTnMkjoOHxvfDr-4" source="63NR2rLTnMkjoOHxvfDr-19" target="63NR2rLTnMkjoOHxvfDr-21" edge="1">
          <mxGeometry relative="1" as="geometry" />
        </mxCell>
        <mxCell id="63NR2rLTnMkjoOHxvfDr-18" style="edgeStyle=orthogonalEdgeStyle;rounded=0;orthogonalLoop=1;jettySize=auto;html=1;entryX=0;entryY=0.5;entryDx=0;entryDy=0;fontSize=16;exitX=0.5;exitY=1;exitDx=0;exitDy=0;" parent="63NR2rLTnMkjoOHxvfDr-4" source="63NR2rLTnMkjoOHxvfDr-19" target="63NR2rLTnMkjoOHxvfDr-20" edge="1">
          <mxGeometry relative="1" as="geometry" />
        </mxCell>
        <mxCell id="63NR2rLTnMkjoOHxvfDr-19" value="V1" style="whiteSpace=wrap;html=1;treeFolding=1;treeMoving=1;newEdgeStyle={&quot;edgeStyle&quot;:&quot;elbowEdgeStyle&quot;,&quot;startArrow&quot;:&quot;none&quot;,&quot;endArrow&quot;:&quot;none&quot;};" parent="63NR2rLTnMkjoOHxvfDr-4" vertex="1">
          <mxGeometry x="690" y="241.5" width="120" height="40" as="geometry" />
        </mxCell>
        <mxCell id="63NR2rLTnMkjoOHxvfDr-20" value="&amp;lt;filename B&amp;gt;" style="whiteSpace=wrap;html=1;treeFolding=1;treeMoving=1;newEdgeStyle={&quot;edgeStyle&quot;:&quot;elbowEdgeStyle&quot;,&quot;startArrow&quot;:&quot;none&quot;,&quot;endArrow&quot;:&quot;none&quot;};" parent="63NR2rLTnMkjoOHxvfDr-4" vertex="1">
          <mxGeometry x="840" y="344" width="120" height="40" as="geometry" />
        </mxCell>
        <mxCell id="63NR2rLTnMkjoOHxvfDr-21" value="&amp;lt;filename A&amp;gt;" style="whiteSpace=wrap;html=1;treeFolding=1;treeMoving=1;newEdgeStyle={&quot;edgeStyle&quot;:&quot;elbowEdgeStyle&quot;,&quot;startArrow&quot;:&quot;none&quot;,&quot;endArrow&quot;:&quot;none&quot;};" parent="63NR2rLTnMkjoOHxvfDr-4" vertex="1">
          <mxGeometry x="840.0000000000005" y="291.5" width="120" height="40" as="geometry" />
        </mxCell>
        <mxCell id="63NR2rLTnMkjoOHxvfDr-22" value="&amp;lt;filename C" style="whiteSpace=wrap;html=1;treeFolding=1;treeMoving=1;newEdgeStyle={&quot;edgeStyle&quot;:&quot;elbowEdgeStyle&quot;,&quot;startArrow&quot;:&quot;none&quot;,&quot;endArrow&quot;:&quot;none&quot;};" parent="63NR2rLTnMkjoOHxvfDr-4" vertex="1">
          <mxGeometry x="840.0000000000005" y="404" width="120" height="40" as="geometry" />
        </mxCell>
        <mxCell id="63NR2rLTnMkjoOHxvfDr-23" style="edgeStyle=orthogonalEdgeStyle;rounded=0;orthogonalLoop=1;jettySize=auto;html=1;entryX=0;entryY=0.5;entryDx=0;entryDy=0;fontSize=16;exitX=0.5;exitY=1;exitDx=0;exitDy=0;" parent="63NR2rLTnMkjoOHxvfDr-4" source="63NR2rLTnMkjoOHxvfDr-19" target="63NR2rLTnMkjoOHxvfDr-22" edge="1">
          <mxGeometry relative="1" as="geometry">
            <mxPoint x="760.0000000000005" y="291.5" as="sourcePoint" />
            <mxPoint x="840.0000000000005" y="424" as="targetPoint" />
          </mxGeometry>
        </mxCell>
        <mxCell id="63NR2rLTnMkjoOHxvfDr-24" value="" style="edgeStyle=elbowEdgeStyle;elbow=vertical;startArrow=none;endArrow=none;rounded=0;" parent="63NR2rLTnMkjoOHxvfDr-4" source="63NR2rLTnMkjoOHxvfDr-14" target="63NR2rLTnMkjoOHxvfDr-25" edge="1">
          <mxGeometry relative="1" as="geometry">
            <mxPoint x="560" y="464" as="sourcePoint" />
            <Array as="points" />
          </mxGeometry>
        </mxCell>
        <mxCell id="63NR2rLTnMkjoOHxvfDr-25" value="&amp;lt;filename A&amp;gt;&lt;br&gt;r&lt;i&gt;2&lt;/i&gt;" style="whiteSpace=wrap;html=1;treeFolding=1;treeMoving=1;newEdgeStyle={&quot;edgeStyle&quot;:&quot;elbowEdgeStyle&quot;,&quot;startArrow&quot;:&quot;none&quot;,&quot;endArrow&quot;:&quot;none&quot;};" parent="63NR2rLTnMkjoOHxvfDr-4" vertex="1">
          <mxGeometry x="330" y="291.5" width="75" height="40" as="geometry" />
        </mxCell>
        <mxCell id="63NR2rLTnMkjoOHxvfDr-26" value="" style="edgeStyle=elbowEdgeStyle;elbow=vertical;startArrow=none;endArrow=none;rounded=0;" parent="63NR2rLTnMkjoOHxvfDr-4" source="63NR2rLTnMkjoOHxvfDr-25" target="63NR2rLTnMkjoOHxvfDr-27" edge="1">
          <mxGeometry relative="1" as="geometry">
            <mxPoint x="650" y="501.52941176470586" as="sourcePoint" />
            <Array as="points" />
          </mxGeometry>
        </mxCell>
        <mxCell id="63NR2rLTnMkjoOHxvfDr-27" value="&lt;em class=&quot;diigoHighlight id_f635f9527bdc57a73d4da7ce5d6d1d4a type_0 yellow&quot;&gt;&amp;lt;filename A&amp;gt;&lt;/em&gt;&lt;br&gt;&lt;em class=&quot;diigoHighlight id_f635f9527bdc57a73d4da7ce5d6d1d4a type_0 yellow&quot;&gt;r&lt;i&gt;N&lt;/i&gt;&lt;span class=&quot;diigoHighlightCommentLocator&quot;&gt;&lt;div class=&quot;diigoIcon id_f635f9527bdc57a73d4da7ce5d6d1d4a type_9 TextIcon yellow&quot; title=&quot;&quot; style=&quot;bottom: 0px&quot;&gt;&lt;/div&gt;&lt;/span&gt;&lt;/em&gt;" style="whiteSpace=wrap;html=1;treeFolding=1;treeMoving=1;newEdgeStyle={&quot;edgeStyle&quot;:&quot;elbowEdgeStyle&quot;,&quot;startArrow&quot;:&quot;none&quot;,&quot;endArrow&quot;:&quot;none&quot;};" parent="63NR2rLTnMkjoOHxvfDr-4" vertex="1" collapsed="1">
          <mxGeometry x="430" y="291.5" width="75" height="40" as="geometry" />
        </mxCell>
        <mxCell id="63NR2rLTnMkjoOHxvfDr-28" value="" style="edgeStyle=elbowEdgeStyle;elbow=vertical;startArrow=none;endArrow=none;rounded=0;entryX=0;entryY=0.5;entryDx=0;entryDy=0;" parent="63NR2rLTnMkjoOHxvfDr-4" source="63NR2rLTnMkjoOHxvfDr-10" target="63NR2rLTnMkjoOHxvfDr-29" edge="1">
          <mxGeometry relative="1" as="geometry">
            <mxPoint x="560" y="464" as="sourcePoint" />
            <Array as="points" />
          </mxGeometry>
        </mxCell>
        <mxCell id="63NR2rLTnMkjoOHxvfDr-29" value="&amp;lt;filename B&amp;gt;&lt;br&gt;r&lt;i&gt;2&lt;/i&gt;" style="whiteSpace=wrap;html=1;treeFolding=1;treeMoving=1;newEdgeStyle={&quot;edgeStyle&quot;:&quot;elbowEdgeStyle&quot;,&quot;startArrow&quot;:&quot;none&quot;,&quot;endArrow&quot;:&quot;none&quot;};" parent="63NR2rLTnMkjoOHxvfDr-4" vertex="1">
          <mxGeometry x="330" y="344" width="75" height="40" as="geometry" />
        </mxCell>
        <mxCell id="63NR2rLTnMkjoOHxvfDr-30" value="" style="edgeStyle=elbowEdgeStyle;elbow=vertical;startArrow=none;endArrow=none;rounded=0;" parent="63NR2rLTnMkjoOHxvfDr-4" target="63NR2rLTnMkjoOHxvfDr-31" edge="1">
          <mxGeometry relative="1" as="geometry">
            <mxPoint x="260" y="150" as="sourcePoint" />
            <mxPoint x="40" y="214" as="targetPoint" />
            <Array as="points">
              <mxPoint x="720" y="150" />
            </Array>
          </mxGeometry>
        </mxCell>
        <mxCell id="63NR2rLTnMkjoOHxvfDr-31" value="Branch B" style="whiteSpace=wrap;html=1;treeFolding=1;treeMoving=1;newEdgeStyle={&quot;edgeStyle&quot;:&quot;elbowEdgeStyle&quot;,&quot;startArrow&quot;:&quot;none&quot;,&quot;endArrow&quot;:&quot;none&quot;};" parent="63NR2rLTnMkjoOHxvfDr-4" vertex="1">
          <mxGeometry x="690" y="171.5" width="120" height="40" as="geometry" />
        </mxCell>
        <mxCell id="63NR2rLTnMkjoOHxvfDr-34" value="" style="shape=singleArrow;direction=west;whiteSpace=wrap;html=1;fontSize=11;opacity=50;rotation=-40;strokeColor=#FF3333;strokeWidth=10;" parent="63NR2rLTnMkjoOHxvfDr-4" vertex="1">
          <mxGeometry x="222.5" y="54" width="100" height="60" as="geometry" />
        </mxCell>
        <mxCell id="63NR2rLTnMkjoOHxvfDr-47" value="" style="edgeStyle=elbowEdgeStyle;elbow=vertical;startArrow=none;endArrow=none;rounded=0;" parent="63NR2rLTnMkjoOHxvfDr-4" source="63NR2rLTnMkjoOHxvfDr-5" target="63NR2rLTnMkjoOHxvfDr-48" edge="1">
          <mxGeometry relative="1" as="geometry">
            <mxPoint x="500.00000000000045" y="-656" as="sourcePoint" />
            <mxPoint x="40" y="214" as="targetPoint" />
          </mxGeometry>
        </mxCell>
        <mxCell id="63NR2rLTnMkjoOHxvfDr-48" value="Main" style="whiteSpace=wrap;html=1;treeFolding=1;treeMoving=1;newEdgeStyle={&quot;edgeStyle&quot;:&quot;elbowEdgeStyle&quot;,&quot;startArrow&quot;:&quot;none&quot;,&quot;endArrow&quot;:&quot;none&quot;};" parent="63NR2rLTnMkjoOHxvfDr-4" vertex="1">
          <mxGeometry x="10" y="114" width="120" height="40" as="geometry" />
        </mxCell>
        <mxCell id="63NR2rLTnMkjoOHxvfDr-38" value="" style="endArrow=classic;html=1;" parent="1" target="63NR2rLTnMkjoOHxvfDr-1" edge="1">
          <mxGeometry width="50" height="50" relative="1" as="geometry">
            <mxPoint x="548" y="-170" as="sourcePoint" />
            <mxPoint x="1418" y="-510" as="targetPoint" />
          </mxGeometry>
        </mxCell>
        <mxCell id="63NR2rLTnMkjoOHxvfDr-40" value="(11)&lt;br&gt;push" style="ellipse;whiteSpace=wrap;html=1;" parent="1" vertex="1">
          <mxGeometry x="939" y="-520" width="124" height="80" as="geometry" />
        </mxCell>
        <mxCell id="63NR2rLTnMkjoOHxvfDr-43" value="&lt;font face=&quot;Courier New&quot;&gt;--set-upstream&lt;br&gt;&amp;lt;name remote repository&amp;gt; &amp;lt;branch&amp;gt;&lt;/font&gt;" style="endArrow=classic;html=1;entryX=0.5;entryY=1;entryDx=0;entryDy=0;" parent="1" target="63NR2rLTnMkjoOHxvfDr-40" edge="1">
          <mxGeometry x="0.338" width="50" height="50" relative="1" as="geometry">
            <mxPoint x="592" y="-54" as="sourcePoint" />
            <mxPoint x="938" y="-530" as="targetPoint" />
            <Array as="points">
              <mxPoint x="592" y="-360" />
              <mxPoint x="708" y="-360" />
              <mxPoint x="1001" y="-360" />
            </Array>
            <mxPoint as="offset" />
          </mxGeometry>
        </mxCell>
        <mxCell id="63NR2rLTnMkjoOHxvfDr-44" value="" style="endArrow=classic;html=1;exitX=0.5;exitY=0;exitDx=0;exitDy=0;entryX=0.5;entryY=1;entryDx=0;entryDy=0;" parent="1" source="63NR2rLTnMkjoOHxvfDr-40" target="63NR2rLTnMkjoOHxvfDr-4" edge="1">
          <mxGeometry width="50" height="50" relative="1" as="geometry">
            <mxPoint x="568.0000000000005" y="-45.999999999999545" as="sourcePoint" />
            <mxPoint x="1018" y="-430" as="targetPoint" />
            <Array as="points">
              <mxPoint x="1001" y="-540" />
            </Array>
          </mxGeometry>
        </mxCell>
        <mxCell id="63NR2rLTnMkjoOHxvfDr-49" value="clone" style="ellipse;whiteSpace=wrap;html=1;" parent="1" vertex="1">
          <mxGeometry x="2198" y="-520" width="124" height="80" as="geometry" />
        </mxCell>
        <mxCell id="iJWCfO42kXaOOCPk_vlR-1" value="Global Config file&lt;br&gt;&lt;font face=&quot;Courier New&quot;&gt;$REPO_DIR/.git/config&lt;/font&gt;&lt;br&gt;&lt;br&gt;&lt;div style=&quot;text-align: left&quot;&gt;&lt;span style=&quot;background-color: rgb(255 , 255 , 255) ; font-family: &amp;#34;courier new&amp;#34; ; font-size: 11px ; font-weight: 400&quot;&gt;user.name =&#39;***&#39;&lt;/span&gt;&lt;/div&gt;&lt;span style=&quot;font-family: &amp;#34;courier new&amp;#34; ; font-size: 11px ; font-weight: 400 ; background-color: rgb(255 , 255 , 255)&quot;&gt;&lt;div style=&quot;text-align: left&quot;&gt;user.email =&#39;***&#39;&lt;/div&gt;&lt;/span&gt;&lt;span style=&quot;background-color: rgb(255 , 255 , 255)&quot;&gt;&lt;div style=&quot;text-align: left&quot;&gt;&lt;span style=&quot;font-size: 11px ; font-weight: 400 ; font-family: &amp;#34;courier new&amp;#34;&quot;&gt;core.editor =&#39;***&#39;&lt;/span&gt;&lt;/div&gt;&lt;font face=&quot;courier new&quot;&gt;&lt;div style=&quot;text-align: left&quot;&gt;&lt;span style=&quot;font-size: 11px ; font-weight: 400&quot;&gt;core.editor &quot;&#39;C:/Program Files/Notepad++/notepad++.exe&#39; -multiInst -notabbar -nosession -noPlugin&quot;&lt;/span&gt;&lt;/div&gt;&lt;span style=&quot;font-size: 11px ; font-weight: 400&quot;&gt;&lt;div style=&quot;text-align: left&quot;&gt;alias.&amp;lt;alias name&amp;gt; &amp;lt;command&amp;gt;&lt;/div&gt;&lt;/span&gt;&lt;/font&gt;&lt;/span&gt;" style="shape=note;whiteSpace=wrap;html=1;backgroundOutline=1;darkOpacity=0.05;size=19;verticalAlign=top;fontStyle=1" parent="1" vertex="1">
          <mxGeometry x="665" y="-300" width="803" height="130" as="geometry" />
        </mxCell>
        <mxCell id="iJWCfO42kXaOOCPk_vlR-2" value="alias" style="ellipse;whiteSpace=wrap;html=1;" parent="1" vertex="1">
          <mxGeometry x="208" y="-380" width="120" height="88" as="geometry" />
        </mxCell>
        <mxCell id="iJWCfO42kXaOOCPk_vlR-3" value="" style="edgeStyle=orthogonalEdgeStyle;rounded=0;orthogonalLoop=1;jettySize=auto;html=1;exitX=0.5;exitY=0.5;exitDx=0;exitDy=0;exitPerimeter=0;entryX=0;entryY=0.5;entryDx=0;entryDy=0;" parent="1" source="agNFHFQZlJ_opT2V57MR-1" target="iJWCfO42kXaOOCPk_vlR-2" edge="1">
          <mxGeometry relative="1" as="geometry">
            <mxPoint x="123" y="-225" as="sourcePoint" />
            <mxPoint x="218" y="-225" as="targetPoint" />
          </mxGeometry>
        </mxCell>
        <mxCell id="iJWCfO42kXaOOCPk_vlR-4" value="&lt;font face=&quot;Courier New&quot;&gt;--global &lt;br&gt;alias.&amp;lt;alias name&amp;gt; &amp;lt;command&amp;gt;&lt;/font&gt;" style="edgeStyle=orthogonalEdgeStyle;rounded=0;orthogonalLoop=1;jettySize=auto;html=1;exitX=1;exitY=0.5;exitDx=0;exitDy=0;" parent="1" source="iJWCfO42kXaOOCPk_vlR-2" target="iJWCfO42kXaOOCPk_vlR-1" edge="1">
          <mxGeometry x="-0.4886" relative="1" as="geometry">
            <mxPoint x="123" y="-225" as="sourcePoint" />
            <mxPoint x="218.0000000000041" y="-326" as="targetPoint" />
            <Array as="points">
              <mxPoint x="618" y="-336" />
              <mxPoint x="618" y="-235" />
            </Array>
            <mxPoint as="offset" />
          </mxGeometry>
        </mxCell>
        <mxCell id="iJWCfO42kXaOOCPk_vlR-7" value="&lt;font face=&quot;Courier New&quot;&gt;&amp;lt;URL GitHub repo&amp;gt;&lt;/font&gt;" style="edgeStyle=orthogonalEdgeStyle;rounded=0;orthogonalLoop=1;jettySize=auto;html=1;exitX=1;exitY=0.75;exitDx=0;exitDy=0;entryX=0.5;entryY=0;entryDx=0;entryDy=0;" parent="1" source="63NR2rLTnMkjoOHxvfDr-4" target="63NR2rLTnMkjoOHxvfDr-49" edge="1">
          <mxGeometry relative="1" as="geometry">
            <mxPoint x="1540" y="-760" as="sourcePoint" />
            <Array as="points">
              <mxPoint x="2260" y="-882" />
            </Array>
          </mxGeometry>
        </mxCell>
        <mxCell id="iJWCfO42kXaOOCPk_vlR-8" style="edgeStyle=orthogonalEdgeStyle;rounded=0;orthogonalLoop=1;jettySize=auto;html=1;entryX=1;entryY=0.5;entryDx=0;entryDy=0;exitX=0.577;exitY=1.007;exitDx=0;exitDy=0;exitPerimeter=0;" parent="1" source="63NR2rLTnMkjoOHxvfDr-49" target="iJWCfO42kXaOOCPk_vlR-9" edge="1">
          <mxGeometry relative="1" as="geometry">
            <mxPoint x="1738.41" y="-440" as="sourcePoint" />
            <mxPoint x="1708" y="584.7058823529412" as="targetPoint" />
            <Array as="points">
              <mxPoint x="2320" y="-439" />
              <mxPoint x="2320" y="1010" />
              <mxPoint x="1168" y="1010" />
            </Array>
          </mxGeometry>
        </mxCell>
        <mxCell id="iJWCfO42kXaOOCPk_vlR-9" value="Directory" style="whiteSpace=wrap;html=1;treeFolding=1;treeMoving=1;newEdgeStyle={&quot;edgeStyle&quot;:&quot;elbowEdgeStyle&quot;,&quot;startArrow&quot;:&quot;none&quot;,&quot;endArrow&quot;:&quot;none&quot;};" parent="1" vertex="1">
          <mxGeometry x="1048" y="984" width="120" height="40" as="geometry" />
        </mxCell>
        <mxCell id="iJWCfO42kXaOOCPk_vlR-10" value="&amp;lt;filename A&amp;gt; r&lt;i&gt;1&lt;/i&gt;" style="whiteSpace=wrap;html=1;treeFolding=1;treeMoving=1;newEdgeStyle={&quot;edgeStyle&quot;:&quot;elbowEdgeStyle&quot;,&quot;startArrow&quot;:&quot;none&quot;,&quot;endArrow&quot;:&quot;none&quot;};" parent="1" vertex="1">
          <mxGeometry x="1143" y="1044" width="125" height="40" as="geometry" />
        </mxCell>
        <mxCell id="iJWCfO42kXaOOCPk_vlR-11" value="&amp;lt;filename B&amp;gt;&lt;br&gt;r&lt;i&gt;1&lt;/i&gt;" style="whiteSpace=wrap;html=1;treeFolding=1;treeMoving=1;newEdgeStyle={&quot;edgeStyle&quot;:&quot;elbowEdgeStyle&quot;,&quot;startArrow&quot;:&quot;none&quot;,&quot;endArrow&quot;:&quot;none&quot;};" parent="1" vertex="1">
          <mxGeometry x="1143" y="1104" width="125" height="40" as="geometry" />
        </mxCell>
        <mxCell id="iJWCfO42kXaOOCPk_vlR-12" value="&amp;lt;filename C&lt;br&gt;r&lt;i&gt;1&lt;/i&gt;" style="whiteSpace=wrap;html=1;treeFolding=1;treeMoving=1;newEdgeStyle={&quot;edgeStyle&quot;:&quot;elbowEdgeStyle&quot;,&quot;startArrow&quot;:&quot;none&quot;,&quot;endArrow&quot;:&quot;none&quot;};" parent="1" vertex="1">
          <mxGeometry x="1150" y="846" width="125" height="40" as="geometry" />
        </mxCell>
        <mxCell id="iJWCfO42kXaOOCPk_vlR-13" value="" style="edgeStyle=elbowEdgeStyle;elbow=vertical;startArrow=none;endArrow=none;rounded=0;entryX=0;entryY=0.25;entryDx=0;entryDy=0;" parent="1" target="iJWCfO42kXaOOCPk_vlR-10" edge="1">
          <mxGeometry relative="1" as="geometry">
            <mxPoint x="1108" y="1024" as="sourcePoint" />
            <Array as="points">
              <mxPoint x="1100" y="1054" />
              <mxPoint x="990" y="1064" />
            </Array>
            <mxPoint x="1130" y="1060" as="targetPoint" />
          </mxGeometry>
        </mxCell>
        <mxCell id="iJWCfO42kXaOOCPk_vlR-14" value="" style="edgeStyle=elbowEdgeStyle;elbow=vertical;startArrow=none;endArrow=none;rounded=0;entryX=0;entryY=0.5;entryDx=0;entryDy=0;exitX=0.5;exitY=0;exitDx=0;exitDy=0;" parent="1" source="iJWCfO42kXaOOCPk_vlR-9" target="iJWCfO42kXaOOCPk_vlR-12" edge="1">
          <mxGeometry relative="1" as="geometry">
            <mxPoint x="1158.0000000000005" y="990" as="sourcePoint" />
            <Array as="points">
              <mxPoint x="1130" y="866" />
              <mxPoint x="1188" y="1200" />
            </Array>
          </mxGeometry>
        </mxCell>
        <mxCell id="iJWCfO42kXaOOCPk_vlR-15" style="edgeStyle=orthogonalEdgeStyle;rounded=0;orthogonalLoop=1;jettySize=auto;html=1;fontSize=16;exitX=0.5;exitY=1;exitDx=0;exitDy=0;entryX=0;entryY=0.25;entryDx=0;entryDy=0;" parent="1" source="iJWCfO42kXaOOCPk_vlR-9" target="iJWCfO42kXaOOCPk_vlR-11" edge="1">
          <mxGeometry relative="1" as="geometry">
            <mxPoint x="998" y="1184" as="sourcePoint" />
            <Array as="points">
              <mxPoint x="1108" y="1114" />
            </Array>
          </mxGeometry>
        </mxCell>
        <mxCell id="iJWCfO42kXaOOCPk_vlR-16" value="Operates at the repo level" style="shape=callout;whiteSpace=wrap;html=1;perimeter=calloutPerimeter;base=50;size=30;position=0.83;position2=0.92;" parent="1" vertex="1">
          <mxGeometry x="2098" y="-580" width="120" height="80" as="geometry" />
        </mxCell>
        <mxCell id="iJWCfO42kXaOOCPk_vlR-18" value="rebase" style="ellipse;whiteSpace=wrap;html=1;" parent="1" vertex="1">
          <mxGeometry x="1168" y="430" width="124" height="80" as="geometry" />
        </mxCell>
        <mxCell id="iJWCfO42kXaOOCPk_vlR-19" value="&lt;font face=&quot;Courier New&quot;&gt;&amp;lt;source branch&amp;gt;&lt;/font&gt;" style="edgeStyle=orthogonalEdgeStyle;rounded=0;orthogonalLoop=1;jettySize=auto;html=1;entryX=1;entryY=0.5;entryDx=0;entryDy=0;fontSize=11;exitX=1;exitY=0.25;exitDx=0;exitDy=0;horizontal=0;" parent="1" source="Mm4MfuI6_JCa-wtS7Yni-84" target="iJWCfO42kXaOOCPk_vlR-18" edge="1">
          <mxGeometry x="0.8978" relative="1" as="geometry">
            <mxPoint x="1178" y="31.5" as="sourcePoint" />
            <Array as="points">
              <mxPoint x="1378" y="12" />
              <mxPoint x="1378" y="470" />
            </Array>
            <mxPoint as="offset" />
            <mxPoint x="1341.9999999999955" y="385" as="targetPoint" />
          </mxGeometry>
        </mxCell>
        <mxCell id="iJWCfO42kXaOOCPk_vlR-20" value="&lt;span style=&quot;font-size: 11px ; font-style: normal ; letter-spacing: normal ; text-indent: 0px ; text-transform: none ; word-spacing: 0px ; background-color: rgb(255 , 255 , 255) ; display: inline ; float: none&quot;&gt;&lt;b&gt;&lt;font color=&quot;#ff3333&quot;&gt;&amp;lt;Branch ID&amp;gt;&lt;/font&gt; &amp;lt;Commit message&amp;gt;&lt;/b&gt;&lt;/span&gt;&lt;br style=&quot;font-size: 11px ; font-style: normal ; font-weight: 400 ; letter-spacing: normal ; text-indent: 0px ; text-transform: none ; word-spacing: 0px&quot;&gt;&lt;span style=&quot;color: rgb(0 , 0 , 0) ; font-size: 11px ; font-style: normal ; font-weight: 400 ; letter-spacing: normal ; text-indent: 0px ; text-transform: none ; word-spacing: 0px ; background-color: rgb(255 , 255 , 255) ; display: inline ; float: none&quot;&gt;&lt;br&gt;&lt;/span&gt;" style="shape=document;whiteSpace=wrap;html=1;boundedLbl=1;align=left;fontFamily=Courier New;verticalAlign=top;" parent="1" vertex="1">
          <mxGeometry x="1988" y="140" width="200" height="200" as="geometry" />
        </mxCell>
        <mxCell id="iJWCfO42kXaOOCPk_vlR-22" value="&lt;font face=&quot;Courier New&quot;&gt;--one-line&lt;/font&gt;" style="edgeStyle=orthogonalEdgeStyle;rounded=0;orthogonalLoop=1;jettySize=auto;html=1;exitX=0.5;exitY=1;exitDx=0;exitDy=0;" parent="1" edge="1">
          <mxGeometry x="0.5954" y="18" relative="1" as="geometry">
            <mxPoint x="1848" y="2.0000000000004547" as="sourcePoint" />
            <mxPoint x="1988" y="207.99999999999955" as="targetPoint" />
            <Array as="points">
              <mxPoint x="1848" y="208" />
            </Array>
            <mxPoint as="offset" />
          </mxGeometry>
        </mxCell>
        <mxCell id="iJWCfO42kXaOOCPk_vlR-23" value="&lt;font face=&quot;Courier New&quot;&gt;--one-line --graph&lt;/font&gt;" style="edgeStyle=orthogonalEdgeStyle;rounded=0;orthogonalLoop=1;jettySize=auto;html=1;exitX=0.5;exitY=1;exitDx=0;exitDy=0;" parent="1" source="agNFHFQZlJ_opT2V57MR-18" edge="1">
          <mxGeometry x="0.6611" y="15" relative="1" as="geometry">
            <mxPoint x="1858" y="12.000000000000455" as="sourcePoint" />
            <mxPoint x="1988" y="275" as="targetPoint" />
            <Array as="points">
              <mxPoint x="1848" y="275" />
            </Array>
            <mxPoint as="offset" />
          </mxGeometry>
        </mxCell>
        <mxCell id="iJWCfO42kXaOOCPk_vlR-26" style="edgeStyle=orthogonalEdgeStyle;rounded=0;orthogonalLoop=1;jettySize=auto;html=1;fontSize=20;entryX=0.998;entryY=0.39;entryDx=0;entryDy=0;entryPerimeter=0;" parent="1" source="iJWCfO42kXaOOCPk_vlR-24" target="iJWCfO42kXaOOCPk_vlR-9" edge="1">
          <mxGeometry relative="1" as="geometry">
            <mxPoint x="1718" y="340" as="targetPoint" />
            <Array as="points">
              <mxPoint x="1713" y="1000" />
              <mxPoint x="1168" y="1000" />
            </Array>
          </mxGeometry>
        </mxCell>
        <mxCell id="iJWCfO42kXaOOCPk_vlR-24" value="pull" style="ellipse;whiteSpace=wrap;html=1;" parent="1" vertex="1">
          <mxGeometry x="1651" y="-520" width="124" height="80" as="geometry" />
        </mxCell>
        <mxCell id="iJWCfO42kXaOOCPk_vlR-25" value="" style="endArrow=classic;html=1;entryX=0;entryY=0.5;entryDx=0;entryDy=0;exitX=0.75;exitY=1;exitDx=0;exitDy=0;" parent="1" source="63NR2rLTnMkjoOHxvfDr-4" target="iJWCfO42kXaOOCPk_vlR-24" edge="1">
          <mxGeometry width="50" height="50" relative="1" as="geometry">
            <mxPoint x="1540" y="-540" as="sourcePoint" />
            <mxPoint x="1343" y="-750" as="targetPoint" />
            <Array as="points">
              <mxPoint x="1326" y="-480" />
            </Array>
          </mxGeometry>
        </mxCell>
        <mxCell id="iJWCfO42kXaOOCPk_vlR-27" value="&lt;font face=&quot;Courier New&quot; style=&quot;font-size: 12px&quot;&gt;&amp;lt;GitHub repo&amp;gt;&lt;/font&gt;" style="edgeLabel;html=1;align=center;verticalAlign=middle;resizable=0;points=[];fontSize=20;" parent="iJWCfO42kXaOOCPk_vlR-25" vertex="1" connectable="0">
          <mxGeometry x="-0.4795" y="1" relative="1" as="geometry">
            <mxPoint x="166" y="1" as="offset" />
          </mxGeometry>
        </mxCell>
        <mxCell id="LIZA5RweMX0P5HlMQcV--6" value="" style="edgeStyle=orthogonalEdgeStyle;rounded=0;orthogonalLoop=1;jettySize=auto;html=1;" edge="1" parent="1" source="LIZA5RweMX0P5HlMQcV--1" target="LIZA5RweMX0P5HlMQcV--5">
          <mxGeometry relative="1" as="geometry" />
        </mxCell>
        <mxCell id="LIZA5RweMX0P5HlMQcV--1" value="ls-remote" style="ellipse;whiteSpace=wrap;html=1;" vertex="1" parent="1">
          <mxGeometry x="1784" y="-300" width="124" height="80" as="geometry" />
        </mxCell>
        <mxCell id="LIZA5RweMX0P5HlMQcV--2" value="status" style="ellipse;whiteSpace=wrap;html=1;" vertex="1" parent="1">
          <mxGeometry x="1558" y="332" width="120" height="86" as="geometry" />
        </mxCell>
        <mxCell id="LIZA5RweMX0P5HlMQcV--3" value="" style="endArrow=classic;html=1;entryX=0;entryY=0.5;entryDx=0;entryDy=0;exitX=0.75;exitY=1;exitDx=0;exitDy=0;" edge="1" parent="1" source="63NR2rLTnMkjoOHxvfDr-4" target="LIZA5RweMX0P5HlMQcV--1">
          <mxGeometry width="50" height="50" relative="1" as="geometry">
            <mxPoint x="1320" y="-570" as="sourcePoint" />
            <mxPoint x="1505" y="-380" as="targetPoint" />
            <Array as="points">
              <mxPoint x="1326" y="-460" />
            </Array>
          </mxGeometry>
        </mxCell>
        <mxCell id="LIZA5RweMX0P5HlMQcV--5" value="&lt;span style=&quot;color: rgb(0 , 0 , 0) ; font-size: 11px ; font-style: normal ; font-weight: 400 ; letter-spacing: normal ; text-indent: 0px ; text-transform: none ; word-spacing: 0px ; background-color: rgb(255 , 255 , 255) ; display: inline ; float: none&quot;&gt;&lt;b&gt;&lt;font color=&quot;#ff3333&quot;&gt;&amp;lt;Branch ID&amp;gt;&lt;/font&gt;&amp;nbsp;&amp;lt;Branch name&amp;gt;&lt;/b&gt;&lt;br style=&quot;background-color: rgb(248 , 249 , 250)&quot;&gt;&lt;/span&gt;" style="shape=document;whiteSpace=wrap;html=1;boundedLbl=1;align=left;fontFamily=Courier New;verticalAlign=top;" vertex="1" parent="1">
          <mxGeometry x="1988" y="-297.5" width="200" height="75" as="geometry" />
        </mxCell>
        <mxCell id="LIZA5RweMX0P5HlMQcV--8" style="edgeStyle=elbowEdgeStyle;rounded=0;orthogonalLoop=1;jettySize=auto;html=1;entryX=0.5;entryY=0;entryDx=0;entryDy=0;exitX=0.75;exitY=1;exitDx=0;exitDy=0;" edge="1" parent="1" source="63NR2rLTnMkjoOHxvfDr-4" target="LIZA5RweMX0P5HlMQcV--7">
          <mxGeometry relative="1" as="geometry">
            <mxPoint x="1250" y="-510" as="targetPoint" />
            <mxPoint x="1260" y="-520" as="sourcePoint" />
            <Array as="points">
              <mxPoint x="1162" y="-540" />
            </Array>
          </mxGeometry>
        </mxCell>
        <mxCell id="LIZA5RweMX0P5HlMQcV--7" value="fetch" style="ellipse;whiteSpace=wrap;html=1;" vertex="1" parent="1">
          <mxGeometry x="1100" y="-520" width="124" height="80" as="geometry" />
        </mxCell>
        <mxCell id="LIZA5RweMX0P5HlMQcV--14" value="--all" style="edgeStyle=orthogonalEdgeStyle;rounded=0;orthogonalLoop=1;jettySize=auto;html=1;entryX=0.5;entryY=0;entryDx=0;entryDy=0;fontSize=11;exitX=1;exitY=0.75;exitDx=0;exitDy=0;horizontal=1;fontFamily=Courier New;" edge="1" parent="1" source="Mm4MfuI6_JCa-wtS7Yni-84" target="Mm4MfuI6_JCa-wtS7Yni-61">
          <mxGeometry x="0.8897" relative="1" as="geometry">
            <mxPoint x="1178" y="31.5" as="sourcePoint" />
            <Array as="points">
              <mxPoint x="1360" y="32" />
              <mxPoint x="1360" y="290" />
              <mxPoint x="1081" y="290" />
            </Array>
            <mxPoint as="offset" />
            <mxPoint x="1302" y="480" as="targetPoint" />
          </mxGeometry>
        </mxCell>
        <mxCell id="LIZA5RweMX0P5HlMQcV--15" value="" style="endArrow=classic;html=1;exitX=0.75;exitY=1;exitDx=0;exitDy=0;entryX=1;entryY=0;entryDx=0;entryDy=0;" edge="1" parent="1" source="63NR2rLTnMkjoOHxvfDr-4" target="Mm4MfuI6_JCa-wtS7Yni-61">
          <mxGeometry width="50" height="50" relative="1" as="geometry">
            <mxPoint x="1336" y="-560" as="sourcePoint" />
            <mxPoint x="1080" y="512" as="targetPoint" />
            <Array as="points">
              <mxPoint x="1680" y="-220" />
              <mxPoint x="1680" y="300" />
              <mxPoint x="1125" y="300" />
            </Array>
          </mxGeometry>
        </mxCell>
        <mxCell id="LIZA5RweMX0P5HlMQcV--16" value="--remote" style="edgeLabel;html=1;align=center;verticalAlign=middle;resizable=0;points=[];fontFamily=Courier New;" vertex="1" connectable="0" parent="LIZA5RweMX0P5HlMQcV--15">
          <mxGeometry x="0.9296" y="-3" relative="1" as="geometry">
            <mxPoint y="-31.19" as="offset" />
          </mxGeometry>
        </mxCell>
        <mxCell id="LIZA5RweMX0P5HlMQcV--18" value="" style="endArrow=classic;html=1;entryX=0.75;entryY=0;entryDx=0;entryDy=0;exitX=0.5;exitY=1;exitDx=0;exitDy=0;" edge="1" parent="1" source="LIZA5RweMX0P5HlMQcV--7" target="Mm4MfuI6_JCa-wtS7Yni-11">
          <mxGeometry x="0.338" width="50" height="50" relative="1" as="geometry">
            <mxPoint x="602" y="-44" as="sourcePoint" />
            <mxPoint x="1011" y="-430" as="targetPoint" />
            <Array as="points">
              <mxPoint x="1162" y="-360" />
              <mxPoint x="1250" y="-360" />
              <mxPoint x="1333" y="-360" />
            </Array>
            <mxPoint as="offset" />
          </mxGeometry>
        </mxCell>
      </root>
    </mxGraphModel>
  </diagram>
  <diagram id="418-nmrKtqVubA9N_Cer" name="my OmdenaNeedEnergy Project">
    <mxGraphModel dx="1422" dy="762" grid="1" gridSize="10" guides="1" tooltips="1" connect="1" arrows="1" fold="1" page="1" pageScale="1" pageWidth="1169" pageHeight="827" math="0" shadow="0">
      <root>
        <mxCell id="fbaMlCsSp0l36akBrIIF-0" />
        <mxCell id="fbaMlCsSp0l36akBrIIF-1" parent="fbaMlCsSp0l36akBrIIF-0" />
        <mxCell id="fbaMlCsSp0l36akBrIIF-9" style="edgeStyle=orthogonalEdgeStyle;rounded=0;orthogonalLoop=1;jettySize=auto;html=1;fontSize=20;exitX=1;exitY=0.5;exitDx=0;exitDy=0;startArrow=classic;startFill=1;" parent="fbaMlCsSp0l36akBrIIF-1" source="fbaMlCsSp0l36akBrIIF-4" target="fbaMlCsSp0l36akBrIIF-2" edge="1">
          <mxGeometry relative="1" as="geometry">
            <mxPoint x="980" y="410" as="targetPoint" />
          </mxGeometry>
        </mxCell>
        <mxCell id="fbaMlCsSp0l36akBrIIF-2" value="Google Drive" style="shape=cylinder3;whiteSpace=wrap;html=1;boundedLbl=1;backgroundOutline=1;size=15;fontSize=20;" parent="fbaMlCsSp0l36akBrIIF-1" vertex="1">
          <mxGeometry x="1010" y="130" width="100" height="130" as="geometry" />
        </mxCell>
        <mxCell id="fbaMlCsSp0l36akBrIIF-7" style="edgeStyle=orthogonalEdgeStyle;rounded=0;orthogonalLoop=1;jettySize=auto;html=1;entryX=0;entryY=0.5;entryDx=0;entryDy=0;entryPerimeter=0;fontSize=20;" parent="fbaMlCsSp0l36akBrIIF-1" source="fbaMlCsSp0l36akBrIIF-3" target="fbaMlCsSp0l36akBrIIF-5" edge="1">
          <mxGeometry relative="1" as="geometry" />
        </mxCell>
        <mxCell id="fbaMlCsSp0l36akBrIIF-11" style="edgeStyle=orthogonalEdgeStyle;rounded=0;orthogonalLoop=1;jettySize=auto;html=1;fontSize=20;entryX=1;entryY=0.5;entryDx=0;entryDy=0;dashed=1;" parent="fbaMlCsSp0l36akBrIIF-1" source="0lzxRT268P1IHVpu_Ox1-0" target="fbaMlCsSp0l36akBrIIF-10" edge="1">
          <mxGeometry relative="1" as="geometry">
            <Array as="points">
              <mxPoint x="220" y="310" />
              <mxPoint x="220" y="440" />
            </Array>
          </mxGeometry>
        </mxCell>
        <mxCell id="0lzxRT268P1IHVpu_Ox1-2" style="edgeStyle=orthogonalEdgeStyle;rounded=0;orthogonalLoop=1;jettySize=auto;html=1;fontSize=20;" parent="fbaMlCsSp0l36akBrIIF-1" source="fbaMlCsSp0l36akBrIIF-3" target="0lzxRT268P1IHVpu_Ox1-0" edge="1">
          <mxGeometry relative="1" as="geometry" />
        </mxCell>
        <mxCell id="0lzxRT268P1IHVpu_Ox1-3" style="edgeStyle=orthogonalEdgeStyle;rounded=0;orthogonalLoop=1;jettySize=auto;html=1;fontSize=20;" parent="fbaMlCsSp0l36akBrIIF-1" source="fbaMlCsSp0l36akBrIIF-3" target="0lzxRT268P1IHVpu_Ox1-1" edge="1">
          <mxGeometry relative="1" as="geometry" />
        </mxCell>
        <mxCell id="0lzxRT268P1IHVpu_Ox1-5" style="edgeStyle=orthogonalEdgeStyle;rounded=0;orthogonalLoop=1;jettySize=auto;html=1;entryX=0.301;entryY=-0.025;entryDx=0;entryDy=0;entryPerimeter=0;startArrow=none;startFill=0;fontSize=20;exitX=1.033;exitY=0.738;exitDx=0;exitDy=0;exitPerimeter=0;" parent="fbaMlCsSp0l36akBrIIF-1" source="fbaMlCsSp0l36akBrIIF-3" target="fbaMlCsSp0l36akBrIIF-4" edge="1">
          <mxGeometry relative="1" as="geometry">
            <mxPoint x="792.9649999999997" y="390.79999999999995" as="targetPoint" />
          </mxGeometry>
        </mxCell>
        <mxCell id="0lzxRT268P1IHVpu_Ox1-6" style="edgeStyle=orthogonalEdgeStyle;rounded=0;orthogonalLoop=1;jettySize=auto;html=1;entryX=0.5;entryY=0;entryDx=0;entryDy=0;startArrow=none;startFill=0;fontSize=20;" parent="fbaMlCsSp0l36akBrIIF-1" source="fbaMlCsSp0l36akBrIIF-3" target="fbaMlCsSp0l36akBrIIF-10" edge="1">
          <mxGeometry relative="1" as="geometry">
            <Array as="points">
              <mxPoint x="123" y="170" />
            </Array>
          </mxGeometry>
        </mxCell>
        <mxCell id="0lzxRT268P1IHVpu_Ox1-19" style="edgeStyle=orthogonalEdgeStyle;rounded=0;orthogonalLoop=1;jettySize=auto;html=1;startArrow=none;startFill=0;fontSize=20;" parent="fbaMlCsSp0l36akBrIIF-1" source="fbaMlCsSp0l36akBrIIF-3" target="0lzxRT268P1IHVpu_Ox1-14" edge="1">
          <mxGeometry relative="1" as="geometry" />
        </mxCell>
        <mxCell id="fbaMlCsSp0l36akBrIIF-3" value="PC" style="shape=cube;whiteSpace=wrap;html=1;boundedLbl=1;backgroundOutline=1;darkOpacity=0.05;darkOpacity2=0.1;fontSize=20;" parent="fbaMlCsSp0l36akBrIIF-1" vertex="1">
          <mxGeometry x="310" y="130" width="120" height="80" as="geometry" />
        </mxCell>
        <mxCell id="fbaMlCsSp0l36akBrIIF-4" value="Google Colab" style="shape=internalStorage;whiteSpace=wrap;html=1;backgroundOutline=1;fontSize=20;" parent="fbaMlCsSp0l36akBrIIF-1" vertex="1">
          <mxGeometry x="555" y="390" width="165" height="100" as="geometry" />
        </mxCell>
        <mxCell id="fbaMlCsSp0l36akBrIIF-12" style="edgeStyle=orthogonalEdgeStyle;rounded=0;orthogonalLoop=1;jettySize=auto;html=1;entryX=0.75;entryY=0;entryDx=0;entryDy=0;fontSize=20;exitX=0.405;exitY=1.017;exitDx=0;exitDy=0;exitPerimeter=0;" parent="fbaMlCsSp0l36akBrIIF-1" source="fbaMlCsSp0l36akBrIIF-5" target="fbaMlCsSp0l36akBrIIF-4" edge="1">
          <mxGeometry relative="1" as="geometry">
            <Array as="points">
              <mxPoint x="877" y="190" />
              <mxPoint x="679" y="190" />
            </Array>
          </mxGeometry>
        </mxCell>
        <mxCell id="fbaMlCsSp0l36akBrIIF-5" value="GitHub" style="shape=cylinder3;whiteSpace=wrap;html=1;boundedLbl=1;backgroundOutline=1;size=15;fontSize=20;" parent="fbaMlCsSp0l36akBrIIF-1" vertex="1">
          <mxGeometry x="840" y="20" width="90" height="130" as="geometry" />
        </mxCell>
        <mxCell id="fbaMlCsSp0l36akBrIIF-10" value="Jupyter" style="shape=internalStorage;whiteSpace=wrap;html=1;backgroundOutline=1;fontSize=20;" parent="fbaMlCsSp0l36akBrIIF-1" vertex="1">
          <mxGeometry x="40" y="390" width="165" height="100" as="geometry" />
        </mxCell>
        <mxCell id="0lzxRT268P1IHVpu_Ox1-0" value="Anaconda" style="ellipse;whiteSpace=wrap;html=1;fontSize=20;" parent="fbaMlCsSp0l36akBrIIF-1" vertex="1">
          <mxGeometry x="240" y="270" width="120" height="80" as="geometry" />
        </mxCell>
        <mxCell id="0lzxRT268P1IHVpu_Ox1-4" style="edgeStyle=orthogonalEdgeStyle;rounded=0;orthogonalLoop=1;jettySize=auto;html=1;entryX=0;entryY=0.75;entryDx=0;entryDy=0;fontSize=20;dashed=1;" parent="fbaMlCsSp0l36akBrIIF-1" source="0lzxRT268P1IHVpu_Ox1-1" target="fbaMlCsSp0l36akBrIIF-4" edge="1">
          <mxGeometry relative="1" as="geometry">
            <mxPoint x="739.9999999999995" y="439.9999999999998" as="targetPoint" />
          </mxGeometry>
        </mxCell>
        <mxCell id="0lzxRT268P1IHVpu_Ox1-1" value="Chrome" style="ellipse;whiteSpace=wrap;html=1;fontSize=20;" parent="fbaMlCsSp0l36akBrIIF-1" vertex="1">
          <mxGeometry x="390" y="270" width="120" height="80" as="geometry" />
        </mxCell>
        <mxCell id="0lzxRT268P1IHVpu_Ox1-10" value="&lt;li style=&quot;background-color: transparent ; font-family: &amp;#34;helvetica neue&amp;#34; , &amp;#34;helvetica&amp;#34; , &amp;#34;arial&amp;#34; , sans-serif ; font-size: 13px ; font-weight: 700 ; box-sizing: border-box ; display: inline-block&quot;&gt;&lt;a href=&quot;http://localhost:8888/tree/OneDrive&quot; style=&quot;box-sizing: border-box ; background-color: transparent ; color: rgb(51 , 122 , 183)&quot;&gt;OneDrive&lt;/a&gt;&lt;/li&gt;&lt;span style=&quot;background-color: transparent ; font-family: &amp;#34;helvetica neue&amp;#34; , &amp;#34;helvetica&amp;#34; , &amp;#34;arial&amp;#34; , sans-serif ; font-size: 13px ; font-weight: 700&quot;&gt;&amp;nbsp;/&lt;br&gt;&lt;/span&gt;&lt;li style=&quot;background-color: transparent ; font-family: &amp;#34;helvetica neue&amp;#34; , &amp;#34;helvetica&amp;#34; , &amp;#34;arial&amp;#34; , sans-serif ; font-size: 13px ; font-weight: 700 ; box-sizing: border-box ; display: inline-block&quot;&gt;&amp;nbsp; &amp;nbsp; &amp;nbsp;&amp;nbsp;&lt;a href=&quot;http://localhost:8888/tree/OneDrive/Personal&quot; style=&quot;box-sizing: border-box ; background-color: transparent ; color: rgb(51 , 122 , 183)&quot;&gt;Personal&lt;/a&gt;&lt;/li&gt;&lt;span style=&quot;background-color: transparent ; font-family: &amp;#34;helvetica neue&amp;#34; , &amp;#34;helvetica&amp;#34; , &amp;#34;arial&amp;#34; , sans-serif ; font-size: 13px ; font-weight: 700&quot;&gt;&amp;nbsp;/&lt;br&gt;&amp;nbsp; &amp;nbsp; &amp;nbsp; &amp;nbsp; &amp;nbsp;&lt;/span&gt;&lt;li style=&quot;background-color: transparent ; font-family: &amp;#34;helvetica neue&amp;#34; , &amp;#34;helvetica&amp;#34; , &amp;#34;arial&amp;#34; , sans-serif ; font-size: 13px ; font-weight: 700 ; box-sizing: border-box ; display: inline-block&quot;&gt;&lt;a href=&quot;http://localhost:8888/tree/OneDrive/Personal/Repositorio&quot; style=&quot;box-sizing: border-box ; background-color: transparent ; color: rgb(35 , 82 , 124) ; outline: 5px&quot;&gt;Repositorio&lt;/a&gt;&lt;/li&gt;&lt;span style=&quot;background-color: transparent ; font-family: &amp;#34;helvetica neue&amp;#34; , &amp;#34;helvetica&amp;#34; , &amp;#34;arial&amp;#34; , sans-serif ; font-size: 13px ; font-weight: 700&quot;&gt;&amp;nbsp;/&amp;nbsp;&lt;br&gt;&lt;/span&gt;&lt;li style=&quot;background-color: transparent ; font-family: &amp;#34;helvetica neue&amp;#34; , &amp;#34;helvetica&amp;#34; , &amp;#34;arial&amp;#34; , sans-serif ; font-size: 13px ; font-weight: 700 ; box-sizing: border-box ; display: inline-block&quot;&gt;&amp;nbsp; &amp;nbsp; &amp;nbsp; &amp;nbsp; &amp;nbsp; &amp;nbsp; &amp;nbsp;&amp;nbsp;&lt;a href=&quot;http://localhost:8888/tree/OneDrive/Personal/Repositorio/Data%20Analytics&quot; style=&quot;box-sizing: border-box ; background-color: transparent ; color: rgb(51 , 122 , 183)&quot;&gt;Data Analytics&lt;/a&gt;&lt;/li&gt;&lt;span style=&quot;background-color: transparent ; font-family: &amp;#34;helvetica neue&amp;#34; , &amp;#34;helvetica&amp;#34; , &amp;#34;arial&amp;#34; , sans-serif ; font-size: 13px ; font-weight: 700&quot;&gt;&amp;nbsp;/&lt;br&gt;&amp;nbsp; &amp;nbsp; &amp;nbsp; &amp;nbsp; &amp;nbsp; &amp;nbsp; &amp;nbsp; &amp;nbsp; &amp;nbsp; &amp;nbsp;&lt;/span&gt;&lt;li style=&quot;background-color: transparent ; font-family: &amp;#34;helvetica neue&amp;#34; , &amp;#34;helvetica&amp;#34; , &amp;#34;arial&amp;#34; , sans-serif ; font-size: 13px ; font-weight: 700 ; box-sizing: border-box ; display: inline-block&quot;&gt;&lt;a href=&quot;http://localhost:8888/tree/OneDrive/Personal/Repositorio/Data%20Analytics/Omdena&quot; style=&quot;box-sizing: border-box ; background-color: transparent ; color: rgb(51 , 122 , 183)&quot;&gt;Omdena&lt;/a&gt;&lt;/li&gt;&lt;span style=&quot;background-color: transparent ; font-family: &amp;#34;helvetica neue&amp;#34; , &amp;#34;helvetica&amp;#34; , &amp;#34;arial&amp;#34; , sans-serif ; font-size: 13px ; font-weight: 700&quot;&gt;&amp;nbsp;/&lt;br&gt;&amp;nbsp; &amp;nbsp; &amp;nbsp; &amp;nbsp; &amp;nbsp; &amp;nbsp; &amp;nbsp; &amp;nbsp; &amp;nbsp; &amp;nbsp; &amp;nbsp; &amp;nbsp;&lt;/span&gt;&lt;li style=&quot;background-color: transparent ; font-family: &amp;#34;helvetica neue&amp;#34; , &amp;#34;helvetica&amp;#34; , &amp;#34;arial&amp;#34; , sans-serif ; font-size: 13px ; font-weight: 700 ; box-sizing: border-box ; display: inline-block&quot;&gt;&lt;a href=&quot;http://localhost:8888/tree/OneDrive/Personal/Repositorio/Data%20Analytics/Omdena/NeedEnergy&quot; style=&quot;box-sizing: border-box ; background-color: transparent ; color: rgb(51 , 122 , 183)&quot;&gt;NeedEnergy&lt;/a&gt;&lt;/li&gt;&lt;span style=&quot;background-color: transparent ; font-family: &amp;#34;helvetica neue&amp;#34; , &amp;#34;helvetica&amp;#34; , &amp;#34;arial&amp;#34; , sans-serif ; font-size: 13px ; font-weight: 700&quot;&gt;&amp;nbsp;/&lt;br&gt;&amp;nbsp; &amp;nbsp; &amp;nbsp; &amp;nbsp; &amp;nbsp; &amp;nbsp; &amp;nbsp; &amp;nbsp; &amp;nbsp; &amp;nbsp; &amp;nbsp; &amp;nbsp; &amp;nbsp; &amp;nbsp;&amp;nbsp;&lt;/span&gt;&lt;li style=&quot;background-color: transparent ; font-family: &amp;#34;helvetica neue&amp;#34; , &amp;#34;helvetica&amp;#34; , &amp;#34;arial&amp;#34; , sans-serif ; font-size: 13px ; font-weight: 700 ; box-sizing: border-box ; display: inline-block&quot;&gt;&lt;a href=&quot;http://localhost:8888/tree/OneDrive/Personal/Repositorio/Data%20Analytics/Omdena/NeedEnergy/Code&quot; style=&quot;box-sizing: border-box ; background-color: transparent ; color: rgb(51 , 122 , 183)&quot;&gt;Code&lt;/a&gt;&lt;/li&gt;&lt;span style=&quot;background-color: transparent ; font-family: &amp;#34;helvetica neue&amp;#34; , &amp;#34;helvetica&amp;#34; , &amp;#34;arial&amp;#34; , sans-serif ; font-size: 13px ; font-weight: 700&quot;&gt;&amp;nbsp;/&lt;br&gt;&amp;nbsp; &amp;nbsp; &amp;nbsp; &amp;nbsp; &amp;nbsp; &amp;nbsp; &amp;nbsp; &amp;nbsp; &amp;nbsp; &amp;nbsp; &amp;nbsp; &amp;nbsp; &amp;nbsp; &amp;nbsp; &amp;nbsp; &amp;nbsp;&amp;nbsp;&lt;/span&gt;&lt;li style=&quot;background-color: transparent ; font-family: &amp;#34;helvetica neue&amp;#34; , &amp;#34;helvetica&amp;#34; , &amp;#34;arial&amp;#34; , sans-serif ; font-size: 13px ; font-weight: 700 ; box-sizing: border-box ; display: inline-block&quot;&gt;&lt;a href=&quot;http://localhost:8888/tree/OneDrive/Personal/Repositorio/Data%20Analytics/Omdena/NeedEnergy/Code/myGitHub&quot; style=&quot;box-sizing: border-box ; background-color: transparent ; color: rgb(51 , 122 , 183)&quot;&gt;myGitHub&lt;/a&gt;&lt;/li&gt;" style="pointerEvents=1;shadow=0;dashed=0;html=1;strokeColor=none;fillColor=#505050;labelPosition=center;verticalLabelPosition=bottom;verticalAlign=top;outlineConnect=0;align=left;shape=mxgraph.office.concepts.folders;fontSize=20;" parent="fbaMlCsSp0l36akBrIIF-1" vertex="1">
          <mxGeometry x="110" y="530" width="57" height="53" as="geometry" />
        </mxCell>
        <mxCell id="0lzxRT268P1IHVpu_Ox1-20" style="edgeStyle=orthogonalEdgeStyle;rounded=0;orthogonalLoop=1;jettySize=auto;html=1;startArrow=none;startFill=0;fontSize=20;" parent="fbaMlCsSp0l36akBrIIF-1" source="0lzxRT268P1IHVpu_Ox1-14" target="0lzxRT268P1IHVpu_Ox1-10" edge="1">
          <mxGeometry relative="1" as="geometry">
            <Array as="points">
              <mxPoint x="369" y="557" />
            </Array>
          </mxGeometry>
        </mxCell>
        <mxCell id="0lzxRT268P1IHVpu_Ox1-14" value="&lt;li style=&quot;background-color: transparent ; font-family: &amp;#34;helvetica neue&amp;#34; , &amp;#34;helvetica&amp;#34; , &amp;#34;arial&amp;#34; , sans-serif ; font-size: 13px ; font-weight: 700 ; box-sizing: border-box ; display: inline-block&quot;&gt;&lt;a href=&quot;http://localhost:8888/tree/OneDrive&quot; style=&quot;box-sizing: border-box ; background-color: transparent ; color: rgb(51 , 122 , 183)&quot;&gt;OneDrive&lt;/a&gt;&lt;/li&gt;&lt;span style=&quot;background-color: transparent ; font-family: &amp;#34;helvetica neue&amp;#34; , &amp;#34;helvetica&amp;#34; , &amp;#34;arial&amp;#34; , sans-serif ; font-size: 13px ; font-weight: 700&quot;&gt;&amp;nbsp;/&amp;nbsp;&lt;/span&gt;&lt;li style=&quot;background-color: transparent ; font-family: &amp;#34;helvetica neue&amp;#34; , &amp;#34;helvetica&amp;#34; , &amp;#34;arial&amp;#34; , sans-serif ; font-size: 13px ; font-weight: 700 ; box-sizing: border-box ; display: inline-block&quot;&gt;&lt;a href=&quot;http://localhost:8888/tree/OneDrive/Personal&quot; style=&quot;box-sizing: border-box ; background-color: transparent ; color: rgb(51 , 122 , 183)&quot;&gt;Personal&lt;/a&gt;&lt;/li&gt;&lt;span style=&quot;background-color: transparent ; font-family: &amp;#34;helvetica neue&amp;#34; , &amp;#34;helvetica&amp;#34; , &amp;#34;arial&amp;#34; , sans-serif ; font-size: 13px ; font-weight: 700&quot;&gt;&amp;nbsp;/&amp;nbsp;&lt;/span&gt;&lt;li style=&quot;background-color: transparent ; font-family: &amp;#34;helvetica neue&amp;#34; , &amp;#34;helvetica&amp;#34; , &amp;#34;arial&amp;#34; , sans-serif ; font-size: 13px ; font-weight: 700 ; box-sizing: border-box ; display: inline-block&quot;&gt;&lt;a href=&quot;http://localhost:8888/tree/OneDrive/Personal/Repositorio&quot; style=&quot;box-sizing: border-box ; background-color: transparent ; color: rgb(35 , 82 , 124) ; outline: 5px&quot;&gt;Repositorio&lt;/a&gt;&lt;/li&gt;&lt;span style=&quot;background-color: transparent ; font-family: &amp;#34;helvetica neue&amp;#34; , &amp;#34;helvetica&amp;#34; , &amp;#34;arial&amp;#34; , sans-serif ; font-size: 13px ; font-weight: 700&quot;&gt;&amp;nbsp;/&amp;nbsp;&lt;/span&gt;&lt;li style=&quot;background-color: transparent ; font-family: &amp;#34;helvetica neue&amp;#34; , &amp;#34;helvetica&amp;#34; , &amp;#34;arial&amp;#34; , sans-serif ; font-size: 13px ; font-weight: 700 ; box-sizing: border-box ; display: inline-block&quot;&gt;&lt;a href=&quot;http://localhost:8888/tree/OneDrive/Personal/Repositorio/Data%20Analytics&quot; style=&quot;box-sizing: border-box ; background-color: transparent ; color: rgb(51 , 122 , 183)&quot;&gt;Data Analytics&lt;/a&gt;&lt;/li&gt;&lt;span style=&quot;background-color: transparent ; font-family: &amp;#34;helvetica neue&amp;#34; , &amp;#34;helvetica&amp;#34; , &amp;#34;arial&amp;#34; , sans-serif ; font-size: 13px ; font-weight: 700&quot;&gt;&amp;nbsp;/&amp;nbsp;&lt;/span&gt;&lt;li style=&quot;background-color: transparent ; font-family: &amp;#34;helvetica neue&amp;#34; , &amp;#34;helvetica&amp;#34; , &amp;#34;arial&amp;#34; , sans-serif ; font-size: 13px ; font-weight: 700 ; box-sizing: border-box ; display: inline-block&quot;&gt;&lt;a href=&quot;http://localhost:8888/tree/OneDrive/Personal/Repositorio/Data%20Analytics/Omdena&quot; style=&quot;box-sizing: border-box ; background-color: transparent ; color: rgb(51 , 122 , 183)&quot;&gt;Omdena&lt;/a&gt;&lt;/li&gt;&lt;span style=&quot;background-color: transparent ; font-family: &amp;#34;helvetica neue&amp;#34; , &amp;#34;helvetica&amp;#34; , &amp;#34;arial&amp;#34; , sans-serif ; font-size: 13px ; font-weight: 700&quot;&gt;&amp;nbsp;/&amp;nbsp;&lt;/span&gt;&lt;li style=&quot;background-color: transparent ; font-family: &amp;#34;helvetica neue&amp;#34; , &amp;#34;helvetica&amp;#34; , &amp;#34;arial&amp;#34; , sans-serif ; font-size: 13px ; font-weight: 700 ; box-sizing: border-box ; display: inline-block&quot;&gt;&lt;a href=&quot;http://localhost:8888/tree/OneDrive/Personal/Repositorio/Data%20Analytics/Omdena/NeedEnergy&quot; style=&quot;box-sizing: border-box ; background-color: transparent ; color: rgb(51 , 122 , 183)&quot;&gt;NeedEnergy&lt;/a&gt;&lt;/li&gt;&lt;span style=&quot;background-color: transparent ; font-family: &amp;#34;helvetica neue&amp;#34; , &amp;#34;helvetica&amp;#34; , &amp;#34;arial&amp;#34; , sans-serif ; font-size: 13px ; font-weight: 700&quot;&gt;&amp;nbsp;/&amp;nbsp;&lt;/span&gt;&lt;li style=&quot;background-color: transparent ; font-family: &amp;#34;helvetica neue&amp;#34; , &amp;#34;helvetica&amp;#34; , &amp;#34;arial&amp;#34; , sans-serif ; font-size: 13px ; font-weight: 700 ; box-sizing: border-box ; display: inline-block&quot;&gt;&lt;a href=&quot;http://localhost:8888/tree/OneDrive/Personal/Repositorio/Data%20Analytics/Omdena/NeedEnergy/Code&quot; style=&quot;box-sizing: border-box ; background-color: transparent ; color: rgb(51 , 122 , 183)&quot;&gt;Code&lt;/a&gt;&lt;/li&gt;&lt;li style=&quot;background-color: transparent ; font-family: &amp;#34;helvetica neue&amp;#34; , &amp;#34;helvetica&amp;#34; , &amp;#34;arial&amp;#34; , sans-serif ; font-size: 13px ; font-weight: 700 ; box-sizing: border-box ; display: inline-block&quot;&gt;&lt;/li&gt;" style="pointerEvents=1;shadow=0;dashed=0;html=1;strokeColor=none;fillColor=#505050;labelPosition=center;verticalLabelPosition=bottom;verticalAlign=top;outlineConnect=0;align=center;shape=mxgraph.office.concepts.folders;fontSize=20;" parent="fbaMlCsSp0l36akBrIIF-1" vertex="1">
          <mxGeometry x="341" y="440" width="57" height="53" as="geometry" />
        </mxCell>
        <mxCell id="0lzxRT268P1IHVpu_Ox1-18" value="&lt;li style=&quot;background-color: transparent ; font-family: &amp;#34;helvetica neue&amp;#34; , &amp;#34;helvetica&amp;#34; , &amp;#34;arial&amp;#34; , sans-serif ; font-size: 13px ; font-weight: 700 ; box-sizing: border-box ; display: inline-block&quot;&gt;&lt;a href=&quot;http://localhost:8888/tree/OneDrive&quot; style=&quot;box-sizing: border-box ; background-color: transparent ; color: rgb(51 , 122 , 183)&quot;&gt;OneDrive&lt;/a&gt;&lt;/li&gt;&lt;span style=&quot;background-color: transparent ; font-family: &amp;#34;helvetica neue&amp;#34; , &amp;#34;helvetica&amp;#34; , &amp;#34;arial&amp;#34; , sans-serif ; font-size: 13px ; font-weight: 700&quot;&gt;&amp;nbsp;/&lt;br&gt;&lt;/span&gt;&lt;li style=&quot;background-color: transparent ; font-family: &amp;#34;helvetica neue&amp;#34; , &amp;#34;helvetica&amp;#34; , &amp;#34;arial&amp;#34; , sans-serif ; font-size: 13px ; font-weight: 700 ; box-sizing: border-box ; display: inline-block&quot;&gt;&amp;nbsp; &amp;nbsp; &amp;nbsp;&amp;nbsp;&lt;a href=&quot;http://localhost:8888/tree/OneDrive/Personal&quot; style=&quot;box-sizing: border-box ; background-color: transparent ; color: rgb(51 , 122 , 183)&quot;&gt;Personal&lt;/a&gt;&lt;/li&gt;&lt;span style=&quot;background-color: transparent ; font-family: &amp;#34;helvetica neue&amp;#34; , &amp;#34;helvetica&amp;#34; , &amp;#34;arial&amp;#34; , sans-serif ; font-size: 13px ; font-weight: 700&quot;&gt;&amp;nbsp;/&lt;br&gt;&amp;nbsp; &amp;nbsp; &amp;nbsp; &amp;nbsp; &amp;nbsp;&lt;/span&gt;&lt;li style=&quot;background-color: transparent ; font-family: &amp;#34;helvetica neue&amp;#34; , &amp;#34;helvetica&amp;#34; , &amp;#34;arial&amp;#34; , sans-serif ; font-size: 13px ; font-weight: 700 ; box-sizing: border-box ; display: inline-block&quot;&gt;&lt;a href=&quot;http://localhost:8888/tree/OneDrive/Personal/Repositorio&quot; style=&quot;box-sizing: border-box ; background-color: transparent ; color: rgb(35 , 82 , 124) ; outline: 5px&quot;&gt;Repositorio&lt;/a&gt;&lt;/li&gt;&lt;span style=&quot;background-color: transparent ; font-family: &amp;#34;helvetica neue&amp;#34; , &amp;#34;helvetica&amp;#34; , &amp;#34;arial&amp;#34; , sans-serif ; font-size: 13px ; font-weight: 700&quot;&gt;&amp;nbsp;/&amp;nbsp;&lt;br&gt;&lt;/span&gt;&lt;li style=&quot;background-color: transparent ; font-family: &amp;#34;helvetica neue&amp;#34; , &amp;#34;helvetica&amp;#34; , &amp;#34;arial&amp;#34; , sans-serif ; font-size: 13px ; font-weight: 700 ; box-sizing: border-box ; display: inline-block&quot;&gt;&amp;nbsp; &amp;nbsp; &amp;nbsp; &amp;nbsp; &amp;nbsp; &amp;nbsp; &amp;nbsp;&amp;nbsp;&lt;a href=&quot;http://localhost:8888/tree/OneDrive/Personal/Repositorio/Data%20Analytics&quot; style=&quot;box-sizing: border-box ; background-color: transparent ; color: rgb(51 , 122 , 183)&quot;&gt;Data Analytics&lt;/a&gt;&lt;/li&gt;&lt;span style=&quot;background-color: transparent ; font-family: &amp;#34;helvetica neue&amp;#34; , &amp;#34;helvetica&amp;#34; , &amp;#34;arial&amp;#34; , sans-serif ; font-size: 13px ; font-weight: 700&quot;&gt;&amp;nbsp;/&lt;br&gt;&amp;nbsp; &amp;nbsp; &amp;nbsp; &amp;nbsp; &amp;nbsp; &amp;nbsp; &amp;nbsp; &amp;nbsp; &amp;nbsp; &amp;nbsp;&lt;/span&gt;&lt;li style=&quot;background-color: transparent ; font-family: &amp;#34;helvetica neue&amp;#34; , &amp;#34;helvetica&amp;#34; , &amp;#34;arial&amp;#34; , sans-serif ; font-size: 13px ; font-weight: 700 ; box-sizing: border-box ; display: inline-block&quot;&gt;&lt;a href=&quot;http://localhost:8888/tree/OneDrive/Personal/Repositorio/Data%20Analytics/Omdena&quot; style=&quot;box-sizing: border-box ; background-color: transparent ; color: rgb(51 , 122 , 183)&quot;&gt;Omdena&lt;/a&gt;&lt;/li&gt;&lt;span style=&quot;background-color: transparent ; font-family: &amp;#34;helvetica neue&amp;#34; , &amp;#34;helvetica&amp;#34; , &amp;#34;arial&amp;#34; , sans-serif ; font-size: 13px ; font-weight: 700&quot;&gt;&amp;nbsp;/&lt;br&gt;&amp;nbsp; &amp;nbsp; &amp;nbsp; &amp;nbsp; &amp;nbsp; &amp;nbsp; &amp;nbsp; &amp;nbsp; &amp;nbsp; &amp;nbsp; &amp;nbsp; &amp;nbsp;&lt;/span&gt;&lt;li style=&quot;background-color: transparent ; font-family: &amp;#34;helvetica neue&amp;#34; , &amp;#34;helvetica&amp;#34; , &amp;#34;arial&amp;#34; , sans-serif ; font-size: 13px ; font-weight: 700 ; box-sizing: border-box ; display: inline-block&quot;&gt;&lt;a href=&quot;http://localhost:8888/tree/OneDrive/Personal/Repositorio/Data%20Analytics/Omdena/NeedEnergy&quot; style=&quot;box-sizing: border-box ; background-color: transparent ; color: rgb(51 , 122 , 183)&quot;&gt;NeedEnergy&lt;/a&gt;&lt;/li&gt;&lt;span style=&quot;background-color: transparent ; font-family: &amp;#34;helvetica neue&amp;#34; , &amp;#34;helvetica&amp;#34; , &amp;#34;arial&amp;#34; , sans-serif ; font-size: 13px ; font-weight: 700&quot;&gt;&amp;nbsp;/&lt;br&gt;&amp;nbsp; &amp;nbsp; &amp;nbsp; &amp;nbsp; &amp;nbsp; &amp;nbsp; &amp;nbsp; &amp;nbsp; &amp;nbsp; &amp;nbsp; &amp;nbsp; &amp;nbsp; &amp;nbsp; &amp;nbsp;&amp;nbsp;&lt;/span&gt;&lt;li style=&quot;background-color: transparent ; font-family: &amp;#34;helvetica neue&amp;#34; , &amp;#34;helvetica&amp;#34; , &amp;#34;arial&amp;#34; , sans-serif ; font-size: 13px ; font-weight: 700 ; box-sizing: border-box ; display: inline-block&quot;&gt;&lt;a href=&quot;http://localhost:8888/tree/OneDrive/Personal/Repositorio/Data%20Analytics/Omdena/NeedEnergy/Code&quot; style=&quot;box-sizing: border-box ; background-color: transparent ; color: rgb(51 , 122 , 183)&quot;&gt;Code&lt;/a&gt;&lt;/li&gt;&lt;span style=&quot;background-color: transparent ; font-family: &amp;#34;helvetica neue&amp;#34; , &amp;#34;helvetica&amp;#34; , &amp;#34;arial&amp;#34; , sans-serif ; font-size: 13px ; font-weight: 700&quot;&gt;&amp;nbsp;/&lt;br&gt;&amp;nbsp; &amp;nbsp; &amp;nbsp; &amp;nbsp; &amp;nbsp; &amp;nbsp; &amp;nbsp; &amp;nbsp; &amp;nbsp; &amp;nbsp; &amp;nbsp; &amp;nbsp; &amp;nbsp; &amp;nbsp; &amp;nbsp; &amp;nbsp;&amp;nbsp;&lt;/span&gt;&lt;li style=&quot;background-color: transparent ; font-family: &amp;#34;helvetica neue&amp;#34; , &amp;#34;helvetica&amp;#34; , &amp;#34;arial&amp;#34; , sans-serif ; font-size: 13px ; font-weight: 700 ; box-sizing: border-box ; display: inline-block&quot;&gt;&lt;a href=&quot;http://localhost:8888/tree/OneDrive/Personal/Repositorio/Data%20Analytics/Omdena/NeedEnergy/Code/myGitHub&quot; style=&quot;box-sizing: border-box ; background-color: transparent ; color: rgb(51 , 122 , 183)&quot;&gt;omdena&lt;/a&gt;&lt;/li&gt;" style="pointerEvents=1;shadow=0;dashed=0;html=1;strokeColor=none;fillColor=#505050;labelPosition=center;verticalLabelPosition=bottom;verticalAlign=top;outlineConnect=0;align=left;shape=mxgraph.office.concepts.folders;fontSize=20;" parent="fbaMlCsSp0l36akBrIIF-1" vertex="1">
          <mxGeometry x="562.5" y="520" width="57" height="53" as="geometry" />
        </mxCell>
        <mxCell id="0lzxRT268P1IHVpu_Ox1-21" style="edgeStyle=orthogonalEdgeStyle;rounded=0;orthogonalLoop=1;jettySize=auto;html=1;startArrow=none;startFill=0;fontSize=20;" parent="fbaMlCsSp0l36akBrIIF-1" source="0lzxRT268P1IHVpu_Ox1-14" target="0lzxRT268P1IHVpu_Ox1-18" edge="1">
          <mxGeometry relative="1" as="geometry">
            <mxPoint x="379.47058823529414" y="502.9999999999998" as="sourcePoint" />
            <mxPoint x="177" y="567" as="targetPoint" />
            <Array as="points">
              <mxPoint x="379" y="567" />
            </Array>
          </mxGeometry>
        </mxCell>
        <mxCell id="0lzxRT268P1IHVpu_Ox1-22" value="" style="endArrow=none;html=1;dashed=1;fontSize=20;" parent="fbaMlCsSp0l36akBrIIF-1" edge="1">
          <mxGeometry width="50" height="50" relative="1" as="geometry">
            <mxPoint x="760" y="640" as="sourcePoint" />
            <mxPoint x="760" y="40" as="targetPoint" />
          </mxGeometry>
        </mxCell>
      </root>
    </mxGraphModel>
  </diagram>
  <diagram id="FFeIDEIu3bmjfDb9scU_" name="Page-2">
    <mxGraphModel dx="1422" dy="762" grid="1" gridSize="10" guides="1" tooltips="1" connect="1" arrows="1" fold="1" page="1" pageScale="1" pageWidth="1169" pageHeight="827" math="0" shadow="0">
      <root>
        <mxCell id="NnmB2HN1zKXrs0eCvOrC-0" />
        <mxCell id="NnmB2HN1zKXrs0eCvOrC-1" parent="NnmB2HN1zKXrs0eCvOrC-0" />
        <mxCell id="G1RMB7eO-DW5IhiTJFjv-47" value="giHub repository&lt;br&gt;OmdenaAI/Energy&amp;nbsp;" style="swimlane;html=1;startSize=40;horizontal=1;containerType=tree;" parent="NnmB2HN1zKXrs0eCvOrC-1" vertex="1">
          <mxGeometry x="40" y="40" width="1080" height="320" as="geometry" />
        </mxCell>
        <mxCell id="G1RMB7eO-DW5IhiTJFjv-48" value="" style="edgeStyle=elbowEdgeStyle;elbow=vertical;startArrow=none;endArrow=none;rounded=0;" parent="G1RMB7eO-DW5IhiTJFjv-47" source="G1RMB7eO-DW5IhiTJFjv-49" target="G1RMB7eO-DW5IhiTJFjv-50" edge="1">
          <mxGeometry relative="1" as="geometry" />
        </mxCell>
        <mxCell id="G1RMB7eO-DW5IhiTJFjv-49" value="MAIN" style="whiteSpace=wrap;html=1;treeFolding=1;treeMoving=1;newEdgeStyle={&quot;edgeStyle&quot;:&quot;elbowEdgeStyle&quot;,&quot;startArrow&quot;:&quot;none&quot;,&quot;endArrow&quot;:&quot;none&quot;};" parent="G1RMB7eO-DW5IhiTJFjv-47" vertex="1">
          <mxGeometry x="20" y="70" width="120" height="40" as="geometry" />
        </mxCell>
        <mxCell id="G1RMB7eO-DW5IhiTJFjv-50" value="&lt;span&gt;Task-1-Data-Gathering&lt;/span&gt;" style="whiteSpace=wrap;html=1;treeFolding=1;treeMoving=1;newEdgeStyle={&quot;edgeStyle&quot;:&quot;elbowEdgeStyle&quot;,&quot;startArrow&quot;:&quot;none&quot;,&quot;endArrow&quot;:&quot;none&quot;};" parent="G1RMB7eO-DW5IhiTJFjv-47" vertex="1">
          <mxGeometry x="80" y="150" width="120" height="40" as="geometry" />
        </mxCell>
        <mxCell id="G1RMB7eO-DW5IhiTJFjv-59" value="" style="edgeStyle=elbowEdgeStyle;rounded=0;orthogonalLoop=1;jettySize=auto;html=1;elbow=vertical;startArrow=none;endArrow=none;" parent="G1RMB7eO-DW5IhiTJFjv-47" source="G1RMB7eO-DW5IhiTJFjv-49" target="G1RMB7eO-DW5IhiTJFjv-60" edge="1">
          <mxGeometry relative="1" as="geometry" />
        </mxCell>
        <mxCell id="G1RMB7eO-DW5IhiTJFjv-60" value="Task-2-Data-Wrangling" style="whiteSpace=wrap;html=1;treeFolding=1;treeMoving=1;newEdgeStyle={&quot;edgeStyle&quot;:&quot;elbowEdgeStyle&quot;,&quot;startArrow&quot;:&quot;none&quot;,&quot;endArrow&quot;:&quot;none&quot;};" parent="G1RMB7eO-DW5IhiTJFjv-47" vertex="1">
          <mxGeometry x="240" y="150" width="120" height="40" as="geometry" />
        </mxCell>
        <mxCell id="G1RMB7eO-DW5IhiTJFjv-61" value="" style="edgeStyle=elbowEdgeStyle;rounded=0;orthogonalLoop=1;jettySize=auto;html=1;elbow=vertical;startArrow=none;endArrow=none;" parent="G1RMB7eO-DW5IhiTJFjv-47" source="G1RMB7eO-DW5IhiTJFjv-49" target="G1RMB7eO-DW5IhiTJFjv-62" edge="1">
          <mxGeometry relative="1" as="geometry" />
        </mxCell>
        <mxCell id="G1RMB7eO-DW5IhiTJFjv-62" value="Task-5-Data-Exploration" style="whiteSpace=wrap;html=1;treeFolding=1;treeMoving=1;newEdgeStyle={&quot;edgeStyle&quot;:&quot;elbowEdgeStyle&quot;,&quot;startArrow&quot;:&quot;none&quot;,&quot;endArrow&quot;:&quot;none&quot;};" parent="G1RMB7eO-DW5IhiTJFjv-47" vertex="1">
          <mxGeometry x="400" y="150" width="120" height="40" as="geometry" />
        </mxCell>
        <mxCell id="G1RMB7eO-DW5IhiTJFjv-63" value="" style="edgeStyle=elbowEdgeStyle;rounded=0;orthogonalLoop=1;jettySize=auto;html=1;elbow=vertical;startArrow=none;endArrow=none;" parent="G1RMB7eO-DW5IhiTJFjv-47" source="G1RMB7eO-DW5IhiTJFjv-49" target="G1RMB7eO-DW5IhiTJFjv-64" edge="1">
          <mxGeometry relative="1" as="geometry" />
        </mxCell>
        <mxCell id="G1RMB7eO-DW5IhiTJFjv-64" value="jmcquillen2-EDA" style="whiteSpace=wrap;html=1;treeFolding=1;treeMoving=1;newEdgeStyle={&quot;edgeStyle&quot;:&quot;elbowEdgeStyle&quot;,&quot;startArrow&quot;:&quot;none&quot;,&quot;endArrow&quot;:&quot;none&quot;};" parent="G1RMB7eO-DW5IhiTJFjv-47" vertex="1">
          <mxGeometry x="560" y="150" width="120" height="40" as="geometry" />
        </mxCell>
        <mxCell id="G1RMB7eO-DW5IhiTJFjv-65" value="" style="edgeStyle=elbowEdgeStyle;rounded=0;orthogonalLoop=1;jettySize=auto;html=1;elbow=vertical;startArrow=none;endArrow=none;" parent="G1RMB7eO-DW5IhiTJFjv-47" source="G1RMB7eO-DW5IhiTJFjv-49" target="G1RMB7eO-DW5IhiTJFjv-66" edge="1">
          <mxGeometry relative="1" as="geometry" />
        </mxCell>
        <mxCell id="G1RMB7eO-DW5IhiTJFjv-66" value="historical_weather" style="whiteSpace=wrap;html=1;treeFolding=1;treeMoving=1;newEdgeStyle={&quot;edgeStyle&quot;:&quot;elbowEdgeStyle&quot;,&quot;startArrow&quot;:&quot;none&quot;,&quot;endArrow&quot;:&quot;none&quot;};" parent="G1RMB7eO-DW5IhiTJFjv-47" vertex="1">
          <mxGeometry x="720" y="150" width="120" height="40" as="geometry" />
        </mxCell>
        <mxCell id="G1RMB7eO-DW5IhiTJFjv-67" value="" style="edgeStyle=elbowEdgeStyle;rounded=0;orthogonalLoop=1;jettySize=auto;html=1;elbow=vertical;startArrow=none;endArrow=none;" parent="G1RMB7eO-DW5IhiTJFjv-47" source="G1RMB7eO-DW5IhiTJFjv-49" target="G1RMB7eO-DW5IhiTJFjv-68" edge="1">
          <mxGeometry relative="1" as="geometry" />
        </mxCell>
        <mxCell id="G1RMB7eO-DW5IhiTJFjv-68" value="Task-6-Anomaly-Detection" style="whiteSpace=wrap;html=1;treeFolding=1;treeMoving=1;newEdgeStyle={&quot;edgeStyle&quot;:&quot;elbowEdgeStyle&quot;,&quot;startArrow&quot;:&quot;none&quot;,&quot;endArrow&quot;:&quot;none&quot;};" parent="G1RMB7eO-DW5IhiTJFjv-47" vertex="1">
          <mxGeometry x="880" y="150" width="120" height="40" as="geometry" />
        </mxCell>
        <mxCell id="G1RMB7eO-DW5IhiTJFjv-70" value="" style="edgeStyle=elbowEdgeStyle;rounded=0;orthogonalLoop=1;jettySize=auto;html=1;elbow=vertical;startArrow=none;endArrow=none;" parent="G1RMB7eO-DW5IhiTJFjv-47" source="G1RMB7eO-DW5IhiTJFjv-62" target="G1RMB7eO-DW5IhiTJFjv-71" edge="1">
          <mxGeometry relative="1" as="geometry">
            <mxPoint x="120" y="150" as="sourcePoint" />
          </mxGeometry>
        </mxCell>
        <mxCell id="G1RMB7eO-DW5IhiTJFjv-71" value="notebooks" style="whiteSpace=wrap;html=1;treeFolding=1;treeMoving=1;newEdgeStyle={&quot;edgeStyle&quot;:&quot;elbowEdgeStyle&quot;,&quot;startArrow&quot;:&quot;none&quot;,&quot;endArrow&quot;:&quot;none&quot;};" parent="G1RMB7eO-DW5IhiTJFjv-47" vertex="1">
          <mxGeometry x="400" y="230" width="120" height="40" as="geometry" />
        </mxCell>
        <mxCell id="G1RMB7eO-DW5IhiTJFjv-52" value="giHub repository" style="swimlane;html=1;startSize=20;horizontal=1;containerType=tree;" parent="NnmB2HN1zKXrs0eCvOrC-1" vertex="1">
          <mxGeometry x="410" y="570" width="400" height="320" as="geometry" />
        </mxCell>
        <mxCell id="G1RMB7eO-DW5IhiTJFjv-53" value="" style="edgeStyle=elbowEdgeStyle;elbow=vertical;startArrow=none;endArrow=none;rounded=0;" parent="G1RMB7eO-DW5IhiTJFjv-52" source="G1RMB7eO-DW5IhiTJFjv-54" target="G1RMB7eO-DW5IhiTJFjv-55" edge="1">
          <mxGeometry relative="1" as="geometry" />
        </mxCell>
        <mxCell id="G1RMB7eO-DW5IhiTJFjv-54" value="MAIN" style="whiteSpace=wrap;html=1;treeFolding=1;treeMoving=1;newEdgeStyle={&quot;edgeStyle&quot;:&quot;elbowEdgeStyle&quot;,&quot;startArrow&quot;:&quot;none&quot;,&quot;endArrow&quot;:&quot;none&quot;};" parent="G1RMB7eO-DW5IhiTJFjv-52" vertex="1">
          <mxGeometry x="140" y="60" width="120" height="40" as="geometry" />
        </mxCell>
        <mxCell id="G1RMB7eO-DW5IhiTJFjv-55" value="Master" style="whiteSpace=wrap;html=1;treeFolding=1;treeMoving=1;newEdgeStyle={&quot;edgeStyle&quot;:&quot;elbowEdgeStyle&quot;,&quot;startArrow&quot;:&quot;none&quot;,&quot;endArrow&quot;:&quot;none&quot;};" parent="G1RMB7eO-DW5IhiTJFjv-52" vertex="1">
          <mxGeometry x="140" y="140" width="120" height="40" as="geometry" />
        </mxCell>
      </root>
    </mxGraphModel>
  </diagram>
</mxfile>
